<?xml version='1.0' encoding='ASCII' standalone='yes'?>
<svg xmlns:xlink="http://www.w3.org/1999/xlink" xmlns="http://www.w3.org/2000/svg" version="1.1" width="390" viewBox="0 0 390 290" height="290">
  <g>
    <g transform="translate(-300, -50) scale(1.25) ">
      <clipPath id="p.0">
        <path d="m0 0l800.0 0l0 600.0l-800.0 0l0 -600.0z" clip-rule="nonzero"/>
      </clipPath>
      <g clip-path="url(#p.0)" fill="none" stroke="none">
        <path fill="#000000" fill-opacity="0.0" d="m0 0l800.0 0l0 600.0l-800.0 0z" fill-rule="evenodd"/>
        <path fill="#458e78" d="m256.0 54.6668l0 0c0 -3.6819725 2.9848328 -6.6668015 6.666809 -6.6668015l26.666382 0l0 0c1.768158 0 3.4638672 0.7023926 4.714142 1.9526596c1.2502747 1.250267 1.9526672 2.9459953 1.9526672 4.714142l0 42.666397c0 3.6819763 -2.9848328 6.6668015 -6.666809 6.6668015l-26.666382 0c-3.6819763 0 -6.666809 -2.9848251 -6.666809 -6.6668015z" fill-rule="evenodd"/>
        <path stroke="#000000" stroke-width="2.0" stroke-linejoin="round" stroke-linecap="butt" d="m256.0 54.6668l0 0c0 -3.6819725 2.9848328 -6.6668015 6.666809 -6.6668015l26.666382 0l0 0c1.768158 0 3.4638672 0.7023926 4.714142 1.9526596c1.2502747 1.250267 1.9526672 2.9459953 1.9526672 4.714142l0 42.666397c0 3.6819763 -2.9848328 6.6668015 -6.666809 6.6668015l-26.666382 0c-3.6819763 0 -6.666809 -2.9848251 -6.666809 -6.6668015z" fill-rule="evenodd"/>
        <path fill="#000000" fill-opacity="0.0" d="m248.0 43.88336l56.0 0l0 28.125984l-56.0 0z" fill-rule="evenodd"/>
        <path fill="#ffffff" d="m267.54688 61.637737l1.0625 -0.09375q0.078125 0.65625 0.359375 1.0625q0.28125 0.40625 0.859375 0.671875q0.59375 0.25 1.328125 0.25q0.640625 0 1.140625 -0.1875q0.5 -0.203125 0.734375 -0.53125q0.25 -0.34375 0.25 -0.734375q0 -0.40625 -0.234375 -0.703125q-0.234375 -0.3125 -0.765625 -0.515625q-0.359375 -0.140625 -1.546875 -0.421875q-1.171875 -0.28125 -1.640625 -0.53125q-0.625 -0.328125 -0.921875 -0.796875q-0.296875 -0.484375 -0.296875 -1.078125q0 -0.640625 0.359375 -1.203125q0.375 -0.578125 1.078125 -0.859375q0.71875 -0.296875 1.578125 -0.296875q0.953125 0 1.6875 0.3125q0.734375 0.296875 1.125 0.90625q0.390625 0.59375 0.421875 1.34375l-1.09375 0.078125q-0.09375 -0.8125 -0.609375 -1.21875q-0.5 -0.421875 -1.484375 -0.421875q-1.03125 0 -1.5 0.375q-0.46875 0.375 -0.46875 0.90625q0 0.46875 0.328125 0.765625q0.328125 0.296875 1.703125 0.609375q1.390625 0.3125 1.90625 0.546875q0.75 0.359375 1.109375 0.890625q0.359375 0.515625 0.359375 1.21875q0 0.6875 -0.390625 1.296875q-0.390625 0.59375 -1.125 0.9374962q-0.734375 0.328125 -1.65625 0.328125q-1.171875 0 -1.96875 -0.328125q-0.78125 -0.3437462 -1.234375 -1.0312462q-0.4375 -0.6875 -0.453125 -1.546875zm8.347656 2.7656212l0 -8.593746l1.71875 0l2.03125 6.078125q0.28125 0.859375 0.40625 1.28125q0.140625 -0.46875 0.453125 -1.375l2.0625 -5.984375l1.53125 0l0 8.593746l-1.09375 0l0 -7.187496l-2.5 7.187496l-1.03125 0l-2.484375 -7.312496l0 7.312496l-1.09375 0z" fill-rule="nonzero"/>
        <path fill="#76b900" d="m264.0 80.0l24.0 0l0 16.0l-24.0 0z" fill-rule="evenodd"/>
        <path stroke="#000000" stroke-width="2.0" stroke-linejoin="round" stroke-linecap="butt" d="m264.0 80.0l24.0 0l0 16.0l-24.0 0z" fill-rule="evenodd"/>
        <path fill="#458e78" d="m304.0 54.6668l0 0c0 -3.6819725 2.9848328 -6.6668015 6.666809 -6.6668015l26.666382 0l0 0c1.768158 0 3.4638672 0.7023926 4.714142 1.9526596c1.2502747 1.250267 1.9526672 2.9459953 1.9526672 4.714142l0 42.666397c0 3.6819763 -2.9848328 6.6668015 -6.666809 6.6668015l-26.666382 0c-3.6819763 0 -6.666809 -2.9848251 -6.666809 -6.6668015z" fill-rule="evenodd"/>
        <path stroke="#000000" stroke-width="2.0" stroke-linejoin="round" stroke-linecap="butt" d="m304.0 54.6668l0 0c0 -3.6819725 2.9848328 -6.6668015 6.666809 -6.6668015l26.666382 0l0 0c1.768158 0 3.4638672 0.7023926 4.714142 1.9526596c1.2502747 1.250267 1.9526672 2.9459953 1.9526672 4.714142l0 42.666397c0 3.6819763 -2.9848328 6.6668015 -6.666809 6.6668015l-26.666382 0c-3.6819763 0 -6.666809 -2.9848251 -6.666809 -6.6668015z" fill-rule="evenodd"/>
        <path fill="#000000" fill-opacity="0.0" d="m296.0 43.88336l56.0 0l0 28.125984l-56.0 0z" fill-rule="evenodd"/>
        <path fill="#ffffff" d="m315.54688 61.637737l1.0625 -0.09375q0.078125 0.65625 0.359375 1.0625q0.28125 0.40625 0.859375 0.671875q0.59375 0.25 1.328125 0.25q0.640625 0 1.140625 -0.1875q0.5 -0.203125 0.734375 -0.53125q0.25 -0.34375 0.25 -0.734375q0 -0.40625 -0.234375 -0.703125q-0.234375 -0.3125 -0.765625 -0.515625q-0.359375 -0.140625 -1.546875 -0.421875q-1.171875 -0.28125 -1.640625 -0.53125q-0.625 -0.328125 -0.921875 -0.796875q-0.296875 -0.484375 -0.296875 -1.078125q0 -0.640625 0.359375 -1.203125q0.375 -0.578125 1.078125 -0.859375q0.71875 -0.296875 1.578125 -0.296875q0.953125 0 1.6875 0.3125q0.734375 0.296875 1.125 0.90625q0.390625 0.59375 0.421875 1.34375l-1.09375 0.078125q-0.09375 -0.8125 -0.609375 -1.21875q-0.5 -0.421875 -1.484375 -0.421875q-1.03125 0 -1.5 0.375q-0.46875 0.375 -0.46875 0.90625q0 0.46875 0.328125 0.765625q0.328125 0.296875 1.703125 0.609375q1.390625 0.3125 1.90625 0.546875q0.75 0.359375 1.109375 0.890625q0.359375 0.515625 0.359375 1.21875q0 0.6875 -0.390625 1.296875q-0.390625 0.59375 -1.125 0.9374962q-0.734375 0.328125 -1.65625 0.328125q-1.171875 0 -1.96875 -0.328125q-0.78125 -0.3437462 -1.234375 -1.0312462q-0.4375 -0.6875 -0.453125 -1.546875zm8.347656 2.7656212l0 -8.593746l1.71875 0l2.03125 6.078125q0.28125 0.859375 0.40625 1.28125q0.140625 -0.46875 0.453125 -1.375l2.0625 -5.984375l1.53125 0l0 8.593746l-1.09375 0l0 -7.187496l-2.5 7.187496l-1.03125 0l-2.484375 -7.312496l0 7.312496l-1.09375 0z" fill-rule="nonzero"/>
        <path fill="#76b900" d="m312.0 80.0l24.0 0l0 16.0l-24.0 0z" fill-rule="evenodd"/>
        <path stroke="#000000" stroke-width="2.0" stroke-linejoin="round" stroke-linecap="butt" d="m312.0 80.0l24.0 0l0 16.0l-24.0 0z" fill-rule="evenodd"/>
        <path fill="#458e78" d="m352.0 54.6668l0 0c0 -3.6819725 2.9848328 -6.6668015 6.666809 -6.6668015l26.666382 0l0 0c1.768158 0 3.4638672 0.7023926 4.714142 1.9526596c1.2502747 1.250267 1.9526672 2.9459953 1.9526672 4.714142l0 42.666397c0 3.6819763 -2.9848328 6.6668015 -6.666809 6.6668015l-26.666382 0c-3.6819763 0 -6.666809 -2.9848251 -6.666809 -6.6668015z" fill-rule="evenodd"/>
        <path stroke="#000000" stroke-width="2.0" stroke-linejoin="round" stroke-linecap="butt" d="m352.0 54.6668l0 0c0 -3.6819725 2.9848328 -6.6668015 6.666809 -6.6668015l26.666382 0l0 0c1.768158 0 3.4638672 0.7023926 4.714142 1.9526596c1.2502747 1.250267 1.9526672 2.9459953 1.9526672 4.714142l0 42.666397c0 3.6819763 -2.9848328 6.6668015 -6.666809 6.6668015l-26.666382 0c-3.6819763 0 -6.666809 -2.9848251 -6.666809 -6.6668015z" fill-rule="evenodd"/>
        <path fill="#000000" fill-opacity="0.0" d="m344.0 43.88336l56.0 0l0 28.125984l-56.0 0z" fill-rule="evenodd"/>
        <path fill="#ffffff" d="m363.54688 61.637737l1.0625 -0.09375q0.078125 0.65625 0.359375 1.0625q0.28125 0.40625 0.859375 0.671875q0.59375 0.25 1.328125 0.25q0.640625 0 1.140625 -0.1875q0.5 -0.203125 0.734375 -0.53125q0.25 -0.34375 0.25 -0.734375q0 -0.40625 -0.234375 -0.703125q-0.234375 -0.3125 -0.765625 -0.515625q-0.359375 -0.140625 -1.546875 -0.421875q-1.171875 -0.28125 -1.640625 -0.53125q-0.625 -0.328125 -0.921875 -0.796875q-0.296875 -0.484375 -0.296875 -1.078125q0 -0.640625 0.359375 -1.203125q0.375 -0.578125 1.078125 -0.859375q0.71875 -0.296875 1.578125 -0.296875q0.953125 0 1.6875 0.3125q0.734375 0.296875 1.125 0.90625q0.390625 0.59375 0.421875 1.34375l-1.09375 0.078125q-0.09375 -0.8125 -0.609375 -1.21875q-0.5 -0.421875 -1.484375 -0.421875q-1.03125 0 -1.5 0.375q-0.46875 0.375 -0.46875 0.90625q0 0.46875 0.328125 0.765625q0.328125 0.296875 1.703125 0.609375q1.390625 0.3125 1.90625 0.546875q0.75 0.359375 1.109375 0.890625q0.359375 0.515625 0.359375 1.21875q0 0.6875 -0.390625 1.296875q-0.390625 0.59375 -1.125 0.9374962q-0.734375 0.328125 -1.65625 0.328125q-1.171875 0 -1.96875 -0.328125q-0.78125 -0.3437462 -1.234375 -1.0312462q-0.4375 -0.6875 -0.453125 -1.546875zm8.347656 2.7656212l0 -8.593746l1.71875 0l2.03125 6.078125q0.28125 0.859375 0.40625 1.28125q0.140625 -0.46875 0.453125 -1.375l2.0625 -5.984375l1.53125 0l0 8.593746l-1.09375 0l0 -7.187496l-2.5 7.187496l-1.03125 0l-2.484375 -7.312496l0 7.312496l-1.09375 0z" fill-rule="nonzero"/>
        <path fill="#76b900" d="m360.0 80.0l24.0 0l0 16.0l-24.0 0z" fill-rule="evenodd"/>
        <path stroke="#000000" stroke-width="2.0" stroke-linejoin="round" stroke-linecap="butt" d="m360.0 80.0l24.0 0l0 16.0l-24.0 0z" fill-rule="evenodd"/>
        <path fill="#458e78" d="m400.0 54.6668l0 0c0 -3.6819725 2.9848328 -6.6668015 6.666809 -6.6668015l26.666382 0l0 0c1.768158 0 3.4638672 0.7023926 4.714142 1.9526596c1.2502747 1.250267 1.9526672 2.9459953 1.9526672 4.714142l0 42.666397c0 3.6819763 -2.9848328 6.6668015 -6.666809 6.6668015l-26.666382 0c-3.6819763 0 -6.666809 -2.9848251 -6.666809 -6.6668015z" fill-rule="evenodd"/>
        <path stroke="#000000" stroke-width="2.0" stroke-linejoin="round" stroke-linecap="butt" d="m400.0 54.6668l0 0c0 -3.6819725 2.9848328 -6.6668015 6.666809 -6.6668015l26.666382 0l0 0c1.768158 0 3.4638672 0.7023926 4.714142 1.9526596c1.2502747 1.250267 1.9526672 2.9459953 1.9526672 4.714142l0 42.666397c0 3.6819763 -2.9848328 6.6668015 -6.666809 6.6668015l-26.666382 0c-3.6819763 0 -6.666809 -2.9848251 -6.666809 -6.6668015z" fill-rule="evenodd"/>
        <path fill="#000000" fill-opacity="0.0" d="m392.0 43.88336l56.0 0l0 28.125984l-56.0 0z" fill-rule="evenodd"/>
        <path fill="#ffffff" d="m411.54688 61.637737l1.0625 -0.09375q0.078125 0.65625 0.359375 1.0625q0.28125 0.40625 0.859375 0.671875q0.59375 0.25 1.328125 0.25q0.640625 0 1.140625 -0.1875q0.5 -0.203125 0.734375 -0.53125q0.25 -0.34375 0.25 -0.734375q0 -0.40625 -0.234375 -0.703125q-0.234375 -0.3125 -0.765625 -0.515625q-0.359375 -0.140625 -1.546875 -0.421875q-1.171875 -0.28125 -1.640625 -0.53125q-0.625 -0.328125 -0.921875 -0.796875q-0.296875 -0.484375 -0.296875 -1.078125q0 -0.640625 0.359375 -1.203125q0.375 -0.578125 1.078125 -0.859375q0.71875 -0.296875 1.578125 -0.296875q0.953125 0 1.6875 0.3125q0.734375 0.296875 1.125 0.90625q0.390625 0.59375 0.421875 1.34375l-1.09375 0.078125q-0.09375 -0.8125 -0.609375 -1.21875q-0.5 -0.421875 -1.484375 -0.421875q-1.03125 0 -1.5 0.375q-0.46875 0.375 -0.46875 0.90625q0 0.46875 0.328125 0.765625q0.328125 0.296875 1.703125 0.609375q1.390625 0.3125 1.90625 0.546875q0.75 0.359375 1.109375 0.890625q0.359375 0.515625 0.359375 1.21875q0 0.6875 -0.390625 1.296875q-0.390625 0.59375 -1.125 0.9374962q-0.734375 0.328125 -1.65625 0.328125q-1.171875 0 -1.96875 -0.328125q-0.78125 -0.3437462 -1.234375 -1.0312462q-0.4375 -0.6875 -0.453125 -1.546875zm8.347656 2.7656212l0 -8.593746l1.71875 0l2.03125 6.078125q0.28125 0.859375 0.40625 1.28125q0.140625 -0.46875 0.453125 -1.375l2.0625 -5.984375l1.53125 0l0 8.593746l-1.09375 0l0 -7.187496l-2.5 7.187496l-1.03125 0l-2.484375 -7.312496l0 7.312496l-1.09375 0z" fill-rule="nonzero"/>
        <path fill="#76b900" d="m408.0 80.0l24.0 0l0 16.0l-24.0 0z" fill-rule="evenodd"/>
        <path stroke="#000000" stroke-width="2.0" stroke-linejoin="round" stroke-linecap="butt" d="m408.0 80.0l24.0 0l0 16.0l-24.0 0z" fill-rule="evenodd"/>
        <path fill="#76b900" d="m312.0 152.0l168.0 0l0 32.0l-168.0 0z" fill-rule="evenodd"/>
        <path stroke="#000000" stroke-width="2.0" stroke-linejoin="round" stroke-linecap="butt" d="m312.0 152.0l168.0 0l0 32.0l-168.0 0z" fill-rule="evenodd"/>
        <path fill="#ffffff" d="m388.27344 173.86l0 -11.453125l1.515625 0l0 10.09375l5.640625 0l0 1.359375l-7.15625 0zm15.7890625 -1.359375l0 1.359375l-7.578125 0q-0.015625 -0.515625 0.171875 -0.984375q0.28125 -0.765625 0.921875 -1.515625q0.640625 -0.75 1.84375 -1.734375q1.859375 -1.53125 2.515625 -2.421875q0.65625 -0.90625 0.65625 -1.703125q0 -0.828125 -0.59375 -1.40625q-0.59375 -0.578125 -1.5625 -0.578125q-1.015625 0 -1.625 0.609375q-0.609375 0.609375 -0.609375 1.6875l-1.453125 -0.140625q0.15625 -1.625 1.125 -2.46875q0.96875 -0.84375 2.59375 -0.84375q1.65625 0 2.609375 0.921875q0.96875 0.90625 0.96875 2.25q0 0.6875 -0.28125 1.359375q-0.28125 0.65625 -0.9375 1.390625q-0.65625 0.734375 -2.171875 2.015625q-1.265625 1.0625 -1.625 1.453125q-0.359375 0.375 -0.59375 0.75l5.625 0z" fill-rule="nonzero"/>
        <path fill="#458e78" d="m496.0 54.6668l0 0c0 -3.6819725 2.9848328 -6.6668015 6.666809 -6.6668015l26.666382 0l0 0c1.7681274 0 3.4638672 0.7023926 4.7141724 1.9526596c1.2502441 1.250267 1.9526367 2.9459953 1.9526367 4.714142l0 42.666397c0 3.6819763 -2.9848022 6.6668015 -6.666809 6.6668015l-26.666382 0c-3.6819763 0 -6.666809 -2.9848251 -6.666809 -6.6668015z" fill-rule="evenodd"/>
        <path stroke="#000000" stroke-width="2.0" stroke-linejoin="round" stroke-linecap="butt" d="m496.0 54.6668l0 0c0 -3.6819725 2.9848328 -6.6668015 6.666809 -6.6668015l26.666382 0l0 0c1.7681274 0 3.4638672 0.7023926 4.7141724 1.9526596c1.2502441 1.250267 1.9526367 2.9459953 1.9526367 4.714142l0 42.666397c0 3.6819763 -2.9848022 6.6668015 -6.666809 6.6668015l-26.666382 0c-3.6819763 0 -6.666809 -2.9848251 -6.666809 -6.6668015z" fill-rule="evenodd"/>
        <path fill="#000000" fill-opacity="0.0" d="m488.0 43.88336l56.0 0l0 28.125984l-56.0 0z" fill-rule="evenodd"/>
        <path fill="#ffffff" d="m507.54688 61.637737l1.0625 -0.09375q0.078125 0.65625 0.359375 1.0625q0.28125 0.40625 0.859375 0.671875q0.59375 0.25 1.328125 0.25q0.640625 0 1.140625 -0.1875q0.5 -0.203125 0.734375 -0.53125q0.25 -0.34375 0.25 -0.734375q0 -0.40625 -0.234375 -0.703125q-0.234375 -0.3125 -0.765625 -0.515625q-0.359375 -0.140625 -1.546875 -0.421875q-1.171875 -0.28125 -1.640625 -0.53125q-0.625 -0.328125 -0.921875 -0.796875q-0.296875 -0.484375 -0.296875 -1.078125q0 -0.640625 0.359375 -1.203125q0.375 -0.578125 1.078125 -0.859375q0.71875 -0.296875 1.578125 -0.296875q0.953125 0 1.6875 0.3125q0.734375 0.296875 1.125 0.90625q0.390625 0.59375 0.421875 1.34375l-1.09375 0.078125q-0.09375 -0.8125 -0.609375 -1.21875q-0.5 -0.421875 -1.484375 -0.421875q-1.03125 0 -1.5 0.375q-0.46875 0.375 -0.46875 0.90625q0 0.46875 0.328125 0.765625q0.328125 0.296875 1.703125 0.609375q1.390625 0.3125 1.90625 0.546875q0.75 0.359375 1.109375 0.890625q0.359375 0.515625 0.359375 1.21875q0 0.6875 -0.390625 1.296875q-0.390625 0.59375 -1.125 0.9374962q-0.734375 0.328125 -1.65625 0.328125q-1.171875 0 -1.96875 -0.328125q-0.78125 -0.3437462 -1.234375 -1.0312462q-0.4375 -0.6875 -0.453125 -1.546875zm8.347656 2.7656212l0 -8.593746l1.71875 0l2.03125 6.078125q0.28125 0.859375 0.40625 1.28125q0.140625 -0.46875 0.453125 -1.375l2.0625 -5.984375l1.53125 0l0 8.593746l-1.09375 0l0 -7.187496l-2.5 7.187496l-1.03125 0l-2.484375 -7.312496l0 7.312496l-1.09375 0z" fill-rule="nonzero"/>
        <path fill="#76b900" d="m504.0 80.0l24.0 0l0 16.0l-24.0 0z" fill-rule="evenodd"/>
        <path stroke="#000000" stroke-width="2.0" stroke-linejoin="round" stroke-linecap="butt" d="m504.0 80.0l24.0 0l0 16.0l-24.0 0z" fill-rule="evenodd"/>
        <path fill="#76b900" d="m264.0 224.0l264.0 0l0 40.0l-264.0 0z" fill-rule="evenodd"/>
        <path stroke="#000000" stroke-width="2.0" stroke-linejoin="round" stroke-linecap="butt" d="m264.0 224.0l264.0 0l0 40.0l-264.0 0z" fill-rule="evenodd"/>
        <path fill="#ffffff" d="m373.6797 249.86l0 -11.453125l3.953125 0q1.328125 0 2.03125 0.15625q0.984375 0.234375 1.6875 0.828125q0.90625 0.765625 1.34375 1.953125q0.453125 1.1875 0.453125 2.71875q0 1.3125 -0.3125 2.328125q-0.296875 1.0 -0.78125 1.65625q-0.46875 0.65625 -1.03125 1.046875q-0.5625 0.375 -1.375 0.578125q-0.796875 0.1875 -1.828125 0.1875l-4.140625 0zm1.515625 -1.359375l2.453125 0q1.125 0 1.765625 -0.203125q0.65625 -0.21875 1.03125 -0.59375q0.546875 -0.546875 0.84375 -1.453125q0.296875 -0.90625 0.296875 -2.203125q0 -1.796875 -0.59375 -2.765625q-0.578125 -0.96875 -1.421875 -1.296875q-0.609375 -0.234375 -1.96875 -0.234375l-2.40625 0l0 8.75zm10.0703125 1.359375l0 -11.453125l5.078125 0q1.53125 0 2.328125 0.3125q0.796875 0.296875 1.265625 1.078125q0.484375 0.78125 0.484375 1.734375q0 1.21875 -0.796875 2.0625q-0.78125 0.828125 -2.4375 1.046875q0.609375 0.296875 0.921875 0.578125q0.65625 0.609375 1.25 1.515625l2.0 3.125l-1.90625 0l-1.515625 -2.390625q-0.671875 -1.03125 -1.109375 -1.578125q-0.421875 -0.546875 -0.765625 -0.765625q-0.328125 -0.21875 -0.6875 -0.296875q-0.25 -0.0625 -0.84375 -0.0625l-1.75 0l0 5.09375l-1.515625 0zm1.515625 -6.40625l3.25 0q1.046875 0 1.625 -0.203125q0.59375 -0.21875 0.890625 -0.6875q0.3125 -0.484375 0.3125 -1.03125q0 -0.8125 -0.59375 -1.328125q-0.59375 -0.53125 -1.859375 -0.53125l-3.625 0l0 3.78125zm8.7421875 6.40625l4.40625 -11.453125l1.640625 0l4.6875 11.453125l-1.734375 0l-1.328125 -3.46875l-4.796875 0l-1.25 3.46875l-1.625 0zm3.3125 -4.703125l3.890625 0l-1.203125 -3.171875q-0.546875 -1.453125 -0.8125 -2.375q-0.21875 1.09375 -0.609375 2.1875l-1.265625 3.359375zm8.578125 4.703125l0 -11.453125l2.28125 0l2.71875 8.109375q0.375 1.125 0.546875 1.6875q0.1875 -0.625 0.609375 -1.828125l2.734375 -7.96875l2.046875 0l0 11.453125l-1.46875 0l0 -9.59375l-3.328125 9.59375l-1.359375 0l-3.3125 -9.75l0 9.75l-1.46875 0z" fill-rule="nonzero"/>
        <path fill="#000000" fill-opacity="0.0" d="m276.0 128.0l240.0 0" fill-rule="evenodd"/>
        <path stroke="#000000" stroke-width="2.0" stroke-linejoin="round" stroke-linecap="butt" d="m276.0 128.0l240.0 0" fill-rule="evenodd"/>
        <path fill="#000000" fill-opacity="0.0" d="m276.0 128.0l0 -24.0" fill-rule="evenodd"/>
        <path stroke="#000000" stroke-width="2.0" stroke-linejoin="round" stroke-linecap="butt" d="m276.0 128.0l0 -12.0" fill-rule="evenodd"/>
        <path fill="#000000" stroke="#000000" stroke-width="2.0" stroke-linecap="butt" d="m279.30347 116.0l-3.3034668 -9.076195l-3.3034668 9.076195z" fill-rule="evenodd"/>
        <path fill="#000000" fill-opacity="0.0" d="m323.88336 128.0l0 -24.0" fill-rule="evenodd"/>
        <path stroke="#000000" stroke-width="2.0" stroke-linejoin="round" stroke-linecap="butt" d="m323.88336 128.0l0 -12.0" fill-rule="evenodd"/>
        <path fill="#000000" stroke="#000000" stroke-width="2.0" stroke-linecap="butt" d="m327.18683 116.0l-3.3034668 -9.076195l-3.3034668 9.076195z" fill-rule="evenodd"/>
        <path fill="#000000" fill-opacity="0.0" d="m372.11664 128.0l0 -24.0" fill-rule="evenodd"/>
        <path stroke="#000000" stroke-width="2.0" stroke-linejoin="round" stroke-linecap="butt" d="m372.11664 128.0l0 -12.0" fill-rule="evenodd"/>
        <path fill="#000000" stroke="#000000" stroke-width="2.0" stroke-linecap="butt" d="m375.4201 116.0l-3.3034668 -9.076195l-3.3034668 9.076195z" fill-rule="evenodd"/>
        <path fill="#000000" fill-opacity="0.0" d="m420.11664 128.0l0 -24.0" fill-rule="evenodd"/>
        <path stroke="#000000" stroke-width="2.0" stroke-linejoin="round" stroke-linecap="butt" d="m420.11664 128.0l0 -12.0" fill-rule="evenodd"/>
        <path fill="#000000" stroke="#000000" stroke-width="2.0" stroke-linecap="butt" d="m423.4201 116.0l-3.3034668 -9.076195l-3.3034668 9.076195z" fill-rule="evenodd"/>
        <path fill="#000000" fill-opacity="0.0" d="m515.88336 128.0l0 -24.0" fill-rule="evenodd"/>
        <path stroke="#000000" stroke-width="2.0" stroke-linejoin="round" stroke-linecap="butt" d="m515.88336 128.0l0 -12.0" fill-rule="evenodd"/>
        <path fill="#000000" stroke="#000000" stroke-width="2.0" stroke-linecap="butt" d="m519.1868 116.0l-3.3034668 -9.076195l-3.3034668 9.076195z" fill-rule="evenodd"/>
        <path fill="#000000" fill-opacity="0.0" d="m395.88336 152.0l0 -24.0" fill-rule="evenodd"/>
        <path stroke="#000000" stroke-width="2.0" stroke-linejoin="round" stroke-linecap="butt" d="m395.88336 140.0l0 -12.0" fill-rule="evenodd"/>
        <path fill="#000000" stroke="#000000" stroke-width="2.0" stroke-linecap="butt" d="m392.5799 140.0l3.3034668 9.076202l3.3034668 -9.076202z" fill-rule="evenodd"/>
        <path fill="#000000" fill-opacity="0.0" d="m396.0 224.0l0 -40.0" fill-rule="evenodd"/>
        <path stroke="#000000" stroke-width="2.0" stroke-linejoin="round" stroke-linecap="butt" d="m396.0 212.0l0 -16.0" fill-rule="evenodd"/>
        <path fill="#000000" stroke="#000000" stroke-width="2.0" stroke-linecap="butt" d="m392.69653 212.0l3.3034668 9.076202l3.3034668 -9.076202z" fill-rule="evenodd"/>
        <path fill="#000000" stroke="#000000" stroke-width="2.0" stroke-linecap="butt" d="m399.30347 196.0l-3.3034668 -9.076202l-3.3034668 9.076202z" fill-rule="evenodd"/>
        <path fill="#000000" fill-opacity="0.0" d="m248.0 70.72822l56.0 0l0 28.125984l-56.0 0z" fill-rule="evenodd"/>
        <path fill="#ffffff" d="m270.20117 91.248215l0 -8.59375l1.140625 0l0 7.578125l4.234375 0l0 1.015625l-5.375 0zm10.267578 0l-1.046875 0l0 -6.71875q-0.390625 0.359375 -1.015625 0.734375q-0.609375 0.359375 -1.09375 0.53125l0 -1.015625q0.875 -0.421875 1.53125 -1.0q0.671875 -0.59375 0.953125 -1.15625l0.671875 0l0 8.625z" fill-rule="nonzero"/>
        <path fill="#000000" fill-opacity="0.0" d="m296.0 70.72822l56.0 0l0 28.125984l-56.0 0z" fill-rule="evenodd"/>
        <path fill="#ffffff" d="m318.20117 91.248215l0 -8.59375l1.140625 0l0 7.578125l4.234375 0l0 1.015625l-5.375 0zm10.267578 0l-1.046875 0l0 -6.71875q-0.390625 0.359375 -1.015625 0.734375q-0.609375 0.359375 -1.09375 0.53125l0 -1.015625q0.875 -0.421875 1.53125 -1.0q0.671875 -0.59375 0.953125 -1.15625l0.671875 0l0 8.625z" fill-rule="nonzero"/>
        <path fill="#000000" fill-opacity="0.0" d="m344.0 70.72822l56.0 0l0 28.125984l-56.0 0z" fill-rule="evenodd"/>
        <path fill="#ffffff" d="m366.20117 91.248215l0 -8.59375l1.140625 0l0 7.578125l4.234375 0l0 1.015625l-5.375 0zm10.267578 0l-1.046875 0l0 -6.71875q-0.390625 0.359375 -1.015625 0.734375q-0.609375 0.359375 -1.09375 0.53125l0 -1.015625q0.875 -0.421875 1.53125 -1.0q0.671875 -0.59375 0.953125 -1.15625l0.671875 0l0 8.625z" fill-rule="nonzero"/>
        <path fill="#000000" fill-opacity="0.0" d="m392.0 70.72822l56.0 0l0 28.125984l-56.0 0z" fill-rule="evenodd"/>
        <path fill="#ffffff" d="m414.20117 91.248215l0 -8.59375l1.140625 0l0 7.578125l4.234375 0l0 1.015625l-5.375 0zm10.267578 0l-1.046875 0l0 -6.71875q-0.390625 0.359375 -1.015625 0.734375q-0.609375 0.359375 -1.09375 0.53125l0 -1.015625q0.875 -0.421875 1.53125 -1.0q0.671875 -0.59375 0.953125 -1.15625l0.671875 0l0 8.625z" fill-rule="nonzero"/>
        <path fill="#000000" fill-opacity="0.0" d="m488.0 70.72822l56.0 0l0 28.125984l-56.0 0z" fill-rule="evenodd"/>
        <path fill="#ffffff" d="m510.20117 91.248215l0 -8.59375l1.140625 0l0 7.578125l4.234375 0l0 1.015625l-5.375 0zm10.267578 0l-1.046875 0l0 -6.71875q-0.390625 0.359375 -1.015625 0.734375q-0.609375 0.359375 -1.09375 0.53125l0 -1.015625q0.875 -0.421875 1.53125 -1.0q0.671875 -0.59375 0.953125 -1.15625l0.671875 0l0 8.625z" fill-rule="nonzero"/>
        <path fill="#000000" fill-opacity="0.0" d="m440.0 34.834644l106.01575 0l0 69.16536l-106.01575 0z" fill-rule="evenodd"/>
        <path fill="#000000" d="m451.875 82.23464l0 -5.484375l5.484375 0l0 5.484375l-5.484375 0zm11.113281 0l0 -5.484375l5.484375 0l0 5.484375l-5.484375 0zm11.113281 0l0 -5.484375l5.484375 0l0 5.484375l-5.484375 0z" fill-rule="nonzero"/>
      </g>
    </g>
  </g>
  <g/>
</svg>
