<?xml version='1.0' encoding='ASCII' standalone='yes'?>
<svg xmlns:xlink="http://www.w3.org/1999/xlink" xmlns="http://www.w3.org/2000/svg" version="1.1" width="390" viewBox="0 0 390 200" height="200">
  <g>
    <g transform="translate(-120, -120) scale(0.833333333333) ">
      <clipPath id="p.0">
        <path d="m0 0l800.0 0l0 600.0l-800.0 0l0 -600.0z" clip-rule="nonzero"/>
      </clipPath>
      <g clip-path="url(#p.0)" fill="none" stroke="none">
        <path fill="#000000" fill-opacity="0.0" d="m0 0l800.0 0l0 600.0l-800.0 0z" fill-rule="evenodd"/>
        <path fill="#76b900" d="m216.0 202.66672l0 0c0 -1.4727936 1.193924 -2.6667175 2.6667175 -2.6667175l170.66656 0c0.7072449 0 1.3855591 0.28096008 1.8856506 0.7810669c0.5001221 0.5001068 0.7810669 1.1783905 0.7810669 1.8856506l0 10.666565c0 1.4727936 -1.1939392 2.6667175 -2.6667175 2.6667175l-170.66656 0c-1.4727936 0 -2.6667175 -1.193924 -2.6667175 -2.6667175z" fill-rule="evenodd"/>
        <path stroke="#ffffff" stroke-width="1.0" stroke-linejoin="round" stroke-linecap="butt" d="m216.0 202.66672l0 0c0 -1.4727936 1.193924 -2.6667175 2.6667175 -2.6667175l170.66656 0c0.7072449 0 1.3855591 0.28096008 1.8856506 0.7810669c0.5001221 0.5001068 0.7810669 1.1783905 0.7810669 1.8856506l0 10.666565c0 1.4727936 -1.1939392 2.6667175 -2.6667175 2.6667175l-170.66656 0c-1.4727936 0 -2.6667175 -1.193924 -2.6667175 -2.6667175z" fill-rule="evenodd"/>
        <path fill="#76b900" d="m216.0 218.66672l0 0c0 -1.4727936 1.193924 -2.6667175 2.6667175 -2.6667175l170.66656 0c0.7072449 0 1.3855591 0.28096008 1.8856506 0.7810669c0.5001221 0.5001068 0.7810669 1.1783905 0.7810669 1.8856506l0 10.666565c0 1.4727936 -1.1939392 2.6667175 -2.6667175 2.6667175l-170.66656 0c-1.4727936 0 -2.6667175 -1.193924 -2.6667175 -2.6667175z" fill-rule="evenodd"/>
        <path stroke="#ffffff" stroke-width="1.0" stroke-linejoin="round" stroke-linecap="butt" d="m216.0 218.66672l0 0c0 -1.4727936 1.193924 -2.6667175 2.6667175 -2.6667175l170.66656 0c0.7072449 0 1.3855591 0.28096008 1.8856506 0.7810669c0.5001221 0.5001068 0.7810669 1.1783905 0.7810669 1.8856506l0 10.666565c0 1.4727936 -1.1939392 2.6667175 -2.6667175 2.6667175l-170.66656 0c-1.4727936 0 -2.6667175 -1.193924 -2.6667175 -2.6667175z" fill-rule="evenodd"/>
        <path fill="#76b900" d="m216.0 234.66672l0 0c0 -1.4727936 1.193924 -2.6667175 2.6667175 -2.6667175l170.66656 0c0.7072449 0 1.3855591 0.28096008 1.8856506 0.7810669c0.5001221 0.5001068 0.7810669 1.1783905 0.7810669 1.8856506l0 10.666565c0 1.4727936 -1.1939392 2.6667175 -2.6667175 2.6667175l-170.66656 0c-1.4727936 0 -2.6667175 -1.193924 -2.6667175 -2.6667175z" fill-rule="evenodd"/>
        <path stroke="#ffffff" stroke-width="1.0" stroke-linejoin="round" stroke-linecap="butt" d="m216.0 234.66672l0 0c0 -1.4727936 1.193924 -2.6667175 2.6667175 -2.6667175l170.66656 0c0.7072449 0 1.3855591 0.28096008 1.8856506 0.7810669c0.5001221 0.5001068 0.7810669 1.1783905 0.7810669 1.8856506l0 10.666565c0 1.4727936 -1.1939392 2.6667175 -2.6667175 2.6667175l-170.66656 0c-1.4727936 0 -2.6667175 -1.193924 -2.6667175 -2.6667175z" fill-rule="evenodd"/>
        <path fill="#76b900" d="m216.0 250.66672l0 0c0 -1.4727936 1.193924 -2.6667175 2.6667175 -2.6667175l170.66656 0c0.7072449 0 1.3855591 0.28096008 1.8856506 0.7810669c0.5001221 0.5001068 0.7810669 1.1783905 0.7810669 1.8856506l0 10.666565c0 1.4727783 -1.1939392 2.6667175 -2.6667175 2.6667175l-170.66656 0c-1.4727936 0 -2.6667175 -1.1939392 -2.6667175 -2.6667175z" fill-rule="evenodd"/>
        <path stroke="#ffffff" stroke-width="1.0" stroke-linejoin="round" stroke-linecap="butt" d="m216.0 250.66672l0 0c0 -1.4727936 1.193924 -2.6667175 2.6667175 -2.6667175l170.66656 0c0.7072449 0 1.3855591 0.28096008 1.8856506 0.7810669c0.5001221 0.5001068 0.7810669 1.1783905 0.7810669 1.8856506l0 10.666565c0 1.4727783 -1.1939392 2.6667175 -2.6667175 2.6667175l-170.66656 0c-1.4727936 0 -2.6667175 -1.1939392 -2.6667175 -2.6667175z" fill-rule="evenodd"/>
        <path fill="#76b900" d="m216.0 266.66672l0 0c0 -1.4727783 1.193924 -2.6667175 2.6667175 -2.6667175l170.66656 0c0.7072449 0 1.3855591 0.28094482 1.8856506 0.7810669c0.5001221 0.50009155 0.7810669 1.1784058 0.7810669 1.8856506l0 10.666565c0 1.4727783 -1.1939392 2.6667175 -2.6667175 2.6667175l-170.66656 0c-1.4727936 0 -2.6667175 -1.1939392 -2.6667175 -2.6667175z" fill-rule="evenodd"/>
        <path stroke="#ffffff" stroke-width="1.0" stroke-linejoin="round" stroke-linecap="butt" d="m216.0 266.66672l0 0c0 -1.4727783 1.193924 -2.6667175 2.6667175 -2.6667175l170.66656 0c0.7072449 0 1.3855591 0.28094482 1.8856506 0.7810669c0.5001221 0.50009155 0.7810669 1.1784058 0.7810669 1.8856506l0 10.666565c0 1.4727783 -1.1939392 2.6667175 -2.6667175 2.6667175l-170.66656 0c-1.4727936 0 -2.6667175 -1.1939392 -2.6667175 -2.6667175z" fill-rule="evenodd"/>
        <path fill="#76b900" d="m216.0 282.66672l0 0c0 -1.4727783 1.193924 -2.6667175 2.6667175 -2.6667175l170.66656 0c0.7072449 0 1.3855591 0.28094482 1.8856506 0.7810669c0.5001221 0.50009155 0.7810669 1.1784058 0.7810669 1.8856506l0 10.666565c0 1.4727783 -1.1939392 2.6667175 -2.6667175 2.6667175l-170.66656 0c-1.4727936 0 -2.6667175 -1.1939392 -2.6667175 -2.6667175z" fill-rule="evenodd"/>
        <path stroke="#ffffff" stroke-width="1.0" stroke-linejoin="round" stroke-linecap="butt" d="m216.0 282.66672l0 0c0 -1.4727783 1.193924 -2.6667175 2.6667175 -2.6667175l170.66656 0c0.7072449 0 1.3855591 0.28094482 1.8856506 0.7810669c0.5001221 0.50009155 0.7810669 1.1784058 0.7810669 1.8856506l0 10.666565c0 1.4727783 -1.1939392 2.6667175 -2.6667175 2.6667175l-170.66656 0c-1.4727936 0 -2.6667175 -1.1939392 -2.6667175 -2.6667175z" fill-rule="evenodd"/>
        <path fill="#76b900" d="m216.0 298.66672l0 0c0 -1.4727783 1.193924 -2.6667175 2.6667175 -2.6667175l170.66656 0c0.7072449 0 1.3855591 0.28094482 1.8856506 0.7810669c0.5001221 0.50009155 0.7810669 1.1784058 0.7810669 1.8856506l0 10.666565c0 1.4727783 -1.1939392 2.6667175 -2.6667175 2.6667175l-170.66656 0c-1.4727936 0 -2.6667175 -1.1939392 -2.6667175 -2.6667175z" fill-rule="evenodd"/>
        <path stroke="#ffffff" stroke-width="1.0" stroke-linejoin="round" stroke-linecap="butt" d="m216.0 298.66672l0 0c0 -1.4727783 1.193924 -2.6667175 2.6667175 -2.6667175l170.66656 0c0.7072449 0 1.3855591 0.28094482 1.8856506 0.7810669c0.5001221 0.50009155 0.7810669 1.1784058 0.7810669 1.8856506l0 10.666565c0 1.4727783 -1.1939392 2.6667175 -2.6667175 2.6667175l-170.66656 0c-1.4727936 0 -2.6667175 -1.1939392 -2.6667175 -2.6667175z" fill-rule="evenodd"/>
        <path fill="#76b900" d="m216.0 314.66672l0 0c0 -1.4727783 1.193924 -2.6667175 2.6667175 -2.6667175l170.66656 0c0.7072449 0 1.3855591 0.28094482 1.8856506 0.7810669c0.5001221 0.50009155 0.7810669 1.1784058 0.7810669 1.8856506l0 10.666565c0 1.4727783 -1.1939392 2.6667175 -2.6667175 2.6667175l-170.66656 0c-1.4727936 0 -2.6667175 -1.1939392 -2.6667175 -2.6667175z" fill-rule="evenodd"/>
        <path stroke="#ffffff" stroke-width="1.0" stroke-linejoin="round" stroke-linecap="butt" d="m216.0 314.66672l0 0c0 -1.4727783 1.193924 -2.6667175 2.6667175 -2.6667175l170.66656 0c0.7072449 0 1.3855591 0.28094482 1.8856506 0.7810669c0.5001221 0.50009155 0.7810669 1.1784058 0.7810669 1.8856506l0 10.666565c0 1.4727783 -1.1939392 2.6667175 -2.6667175 2.6667175l-170.66656 0c-1.4727936 0 -2.6667175 -1.1939392 -2.6667175 -2.6667175z" fill-rule="evenodd"/>
        <path fill="#76b900" d="m394.05832 266.66672l0 0c0 -1.4727783 1.1939392 -2.6667175 2.6667175 -2.6667175l170.66656 0c0.7072754 0 1.3855591 0.28094482 1.8856812 0.7810669c0.50006104 0.50009155 0.7810669 1.1784058 0.7810669 1.8856506l0 10.666565c0 1.4727783 -1.1939697 2.6667175 -2.666748 2.6667175l-170.66656 0c-1.4727783 0 -2.6667175 -1.1939392 -2.6667175 -2.6667175z" fill-rule="evenodd"/>
        <path stroke="#ffffff" stroke-width="1.0" stroke-linejoin="round" stroke-linecap="butt" d="m394.05832 266.66672l0 0c0 -1.4727783 1.1939392 -2.6667175 2.6667175 -2.6667175l170.66656 0c0.7072754 0 1.3855591 0.28094482 1.8856812 0.7810669c0.50006104 0.50009155 0.7810669 1.1784058 0.7810669 1.8856506l0 10.666565c0 1.4727783 -1.1939697 2.6667175 -2.666748 2.6667175l-170.66656 0c-1.4727783 0 -2.6667175 -1.1939392 -2.6667175 -2.6667175z" fill-rule="evenodd"/>
        <path fill="#76b900" d="m394.05832 282.66672l0 0c0 -1.4727783 1.1939392 -2.6667175 2.6667175 -2.6667175l170.66656 0c0.7072754 0 1.3855591 0.28094482 1.8856812 0.7810669c0.50006104 0.50009155 0.7810669 1.1784058 0.7810669 1.8856506l0 10.666565c0 1.4727783 -1.1939697 2.6667175 -2.666748 2.6667175l-170.66656 0c-1.4727783 0 -2.6667175 -1.1939392 -2.6667175 -2.6667175z" fill-rule="evenodd"/>
        <path stroke="#ffffff" stroke-width="1.0" stroke-linejoin="round" stroke-linecap="butt" d="m394.05832 282.66672l0 0c0 -1.4727783 1.1939392 -2.6667175 2.6667175 -2.6667175l170.66656 0c0.7072754 0 1.3855591 0.28094482 1.8856812 0.7810669c0.50006104 0.50009155 0.7810669 1.1784058 0.7810669 1.8856506l0 10.666565c0 1.4727783 -1.1939697 2.6667175 -2.666748 2.6667175l-170.66656 0c-1.4727783 0 -2.6667175 -1.1939392 -2.6667175 -2.6667175z" fill-rule="evenodd"/>
        <path fill="#76b900" d="m394.05832 298.66672l0 0c0 -1.4727783 1.1939392 -2.6667175 2.6667175 -2.6667175l170.66656 0c0.7072754 0 1.3855591 0.28094482 1.8856812 0.7810669c0.50006104 0.50009155 0.7810669 1.1784058 0.7810669 1.8856506l0 10.666565c0 1.4727783 -1.1939697 2.6667175 -2.666748 2.6667175l-170.66656 0c-1.4727783 0 -2.6667175 -1.1939392 -2.6667175 -2.6667175z" fill-rule="evenodd"/>
        <path stroke="#ffffff" stroke-width="1.0" stroke-linejoin="round" stroke-linecap="butt" d="m394.05832 298.66672l0 0c0 -1.4727783 1.1939392 -2.6667175 2.6667175 -2.6667175l170.66656 0c0.7072754 0 1.3855591 0.28094482 1.8856812 0.7810669c0.50006104 0.50009155 0.7810669 1.1784058 0.7810669 1.8856506l0 10.666565c0 1.4727783 -1.1939697 2.6667175 -2.666748 2.6667175l-170.66656 0c-1.4727783 0 -2.6667175 -1.1939392 -2.6667175 -2.6667175z" fill-rule="evenodd"/>
        <path fill="#76b900" d="m394.05832 314.66672l0 0c0 -1.4727783 1.1939392 -2.6667175 2.6667175 -2.6667175l170.66656 0c0.7072754 0 1.3855591 0.28094482 1.8856812 0.7810669c0.50006104 0.50009155 0.7810669 1.1784058 0.7810669 1.8856506l0 10.666565c0 1.4727783 -1.1939697 2.6667175 -2.666748 2.6667175l-170.66656 0c-1.4727783 0 -2.6667175 -1.1939392 -2.6667175 -2.6667175z" fill-rule="evenodd"/>
        <path stroke="#ffffff" stroke-width="1.0" stroke-linejoin="round" stroke-linecap="butt" d="m394.05832 314.66672l0 0c0 -1.4727783 1.1939392 -2.6667175 2.6667175 -2.6667175l170.66656 0c0.7072754 0 1.3855591 0.28094482 1.8856812 0.7810669c0.50006104 0.50009155 0.7810669 1.1784058 0.7810669 1.8856506l0 10.666565c0 1.4727783 -1.1939697 2.6667175 -2.666748 2.6667175l-170.66656 0c-1.4727783 0 -2.6667175 -1.1939392 -2.6667175 -2.6667175z" fill-rule="evenodd"/>
        <path fill="#000000" fill-opacity="0.0" d="m208.0 328.0l0 -128.0" fill-rule="evenodd"/>
        <path stroke="#000000" stroke-width="1.0" stroke-linejoin="round" stroke-linecap="butt" d="m208.0 328.0l0 -122.0" fill-rule="evenodd"/>
        <path fill="#000000" stroke="#000000" stroke-width="1.0" stroke-linecap="butt" d="m209.65173 206.0l-1.6517334 -4.538101l-1.6517334 4.538101z" fill-rule="evenodd"/>
        <path fill="#000000" fill-opacity="0.0" d="m216.0 192.0l384.0 0" fill-rule="evenodd"/>
        <path stroke="#000000" stroke-width="1.0" stroke-linejoin="round" stroke-linecap="butt" d="m216.0 192.0l378.0 0" fill-rule="evenodd"/>
        <path fill="#000000" stroke="#000000" stroke-width="1.0" stroke-linecap="butt" d="m594.0 193.65173l4.538086 -1.6517334l-4.538086 -1.6517334z" fill-rule="evenodd"/>
        <path fill="#000000" fill-opacity="0.0" d="m570.05835 336.0l0 0c0 2.1217346 -0.8428955 4.156555 -2.3432007 5.6568604c-1.5002441 1.5002747 -3.5350952 2.3431396 -5.6567993 2.3431396l-72.00003 0c-4.418274 0 -8.0 3.581726 -8.0 8.0l0 0c0 -4.418274 -3.581726 -8.0 -8.0 -8.0l-72.0 0c-4.418274 0 -8.0 -3.581726 -8.0 -8.0z" fill-rule="evenodd"/>
        <path fill="#000000" fill-opacity="0.0" d="m570.05835 336.0l0 0c0 2.1217346 -0.8428955 4.156555 -2.3432007 5.6568604c-1.5002441 1.5002747 -3.5350952 2.3431396 -5.6567993 2.3431396l-72.00003 0c-4.418274 0 -8.0 3.581726 -8.0 8.0l0 0c0 -4.418274 -3.581726 -8.0 -8.0 -8.0l-72.0 0c-4.418274 0 -8.0 -3.581726 -8.0 -8.0" fill-rule="evenodd"/>
        <path stroke="#000000" stroke-width="1.0" stroke-linejoin="round" stroke-linecap="butt" d="m570.05835 336.0l0 0c0 2.1217346 -0.8428955 4.156555 -2.3432007 5.6568604c-1.5002441 1.5002747 -3.5350952 2.3431396 -5.6567993 2.3431396l-72.00003 0c-4.418274 0 -8.0 3.581726 -8.0 8.0l0 0c0 -4.418274 -3.581726 -8.0 -8.0 -8.0l-72.0 0c-4.418274 0 -8.0 -3.581726 -8.0 -8.0" fill-rule="evenodd"/>
        <path fill="#000000" fill-opacity="0.0" d="m392.0 336.0l0 0c0 2.1217346 -0.842865 4.156555 -2.3431396 5.6568604c-1.5003052 1.5002747 -3.5351257 2.3431396 -5.6568604 2.3431396l-72.0 0c-4.418274 0 -8.0 3.581726 -8.0 8.0l0 0c0 -4.418274 -3.581726 -8.0 -8.0 -8.0l-72.0 0c-4.418274 0 -8.0 -3.581726 -8.0 -8.0z" fill-rule="evenodd"/>
        <path fill="#000000" fill-opacity="0.0" d="m392.0 336.0l0 0c0 2.1217346 -0.842865 4.156555 -2.3431396 5.6568604c-1.5003052 1.5002747 -3.5351257 2.3431396 -5.6568604 2.3431396l-72.0 0c-4.418274 0 -8.0 3.581726 -8.0 8.0l0 0c0 -4.418274 -3.581726 -8.0 -8.0 -8.0l-72.0 0c-4.418274 0 -8.0 -3.581726 -8.0 -8.0" fill-rule="evenodd"/>
        <path stroke="#000000" stroke-width="1.0" stroke-linejoin="round" stroke-linecap="butt" d="m392.0 336.0l0 0c0 2.1217346 -0.842865 4.156555 -2.3431396 5.6568604c-1.5003052 1.5002747 -3.5351257 2.3431396 -5.6568604 2.3431396l-72.0 0c-4.418274 0 -8.0 3.581726 -8.0 8.0l0 0c0 -4.418274 -3.581726 -8.0 -8.0 -8.0l-72.0 0c-4.418274 0 -8.0 -3.581726 -8.0 -8.0" fill-rule="evenodd"/>
        <path fill="#000000" fill-opacity="0.0" d="m320.0 152.0l144.0 0l0 48.0l-144.0 0z" fill-rule="evenodd"/>
        <path fill="#000000" d="m379.1902 177.45125l0.234375 1.453125q-0.6875 0.140625 -1.234375 0.140625q-0.890625 0 -1.390625 -0.28125q-0.484375 -0.28125 -0.6875 -0.734375q-0.203125 -0.46875 -0.203125 -1.9375l0 -5.578125l-1.203125 0l0 -1.265625l1.203125 0l0 -2.390625l1.625 -0.984375l0 3.375l1.65625 0l0 1.265625l-1.65625 0l0 5.671875q0 0.6875 0.078125 0.890625q0.09375 0.203125 0.28125 0.328125q0.203125 0.109375 0.578125 0.109375q0.265625 0 0.71875 -0.0625zm1.6051636 -10.0l0 -1.890625l1.640625 0l0 1.890625l-1.640625 0zm0 11.46875l0 -9.671875l1.640625 0l0 9.671875l-1.640625 0zm4.1448364 0l0 -9.671875l1.46875 0l0 1.359375q0.453125 -0.71875 1.203125 -1.140625q0.765625 -0.4375 1.71875 -0.4375q1.078125 0 1.765625 0.453125q0.6875 0.4375 0.96875 1.234375q1.15625 -1.6875 2.984375 -1.6875q1.453125 0 2.21875 0.796875q0.78125 0.796875 0.78125 2.453125l0 6.640625l-1.640625 0l0 -6.09375q0 -0.984375 -0.15625 -1.40625q-0.15625 -0.4375 -0.578125 -0.703125q-0.421875 -0.265625 -0.984375 -0.265625q-1.015625 0 -1.6875 0.6875q-0.671875 0.671875 -0.671875 2.15625l0 5.625l-1.640625 0l0 -6.28125q0 -1.09375 -0.40625 -1.640625q-0.40625 -0.546875 -1.3125 -0.546875q-0.6875 0 -1.28125 0.359375q-0.59375 0.359375 -0.859375 1.0625q-0.25 0.703125 -0.25 2.03125l0 5.015625l-1.640625 0zm22.165802 -3.109375l1.6875 0.203125q-0.40625 1.484375 -1.484375 2.3125q-1.078125 0.8125 -2.765625 0.8125q-2.125 0 -3.375 -1.296875q-1.234375 -1.3125 -1.234375 -3.671875q0 -2.453125 1.25 -3.796875q1.265625 -1.34375 3.265625 -1.34375q1.9375 0 3.15625 1.328125q1.234375 1.3125 1.234375 3.703125q0 0.15625 0 0.4375l-7.21875 0q0.09375 1.59375 0.90625 2.453125q0.8125 0.84375 2.015625 0.84375q0.90625 0 1.546875 -0.46875q0.640625 -0.484375 1.015625 -1.515625zm-5.390625 -2.65625l5.40625 0q-0.109375 -1.21875 -0.625 -1.828125q-0.78125 -0.953125 -2.03125 -0.953125q-1.125 0 -1.90625 0.765625q-0.765625 0.75 -0.84375 2.015625z" fill-rule="nonzero"/>
        <path fill="#000000" fill-opacity="0.0" d="m152.0 244.11664l64.0 0l0 40.0l-64.0 0z" fill-rule="evenodd"/>
        <path fill="#000000" d="m170.85156 266.73978l1.65625 -0.140625q0.125 1.0 0.546875 1.640625q0.4375 0.640625 1.34375 1.046875q0.921875 0.390625 2.0625 0.390625q1.0 0 1.78125 -0.296875q0.78125 -0.296875 1.15625 -0.8125q0.375 -0.53125 0.375 -1.15625q0 -0.625 -0.375 -1.09375q-0.359375 -0.46875 -1.1875 -0.796875q-0.546875 -0.203125 -2.390625 -0.640625q-1.828125 -0.453125 -2.5625 -0.84375q-0.96875 -0.5 -1.4375 -1.234375q-0.46875 -0.75 -0.46875 -1.671875q0 -1.0 0.578125 -1.875q0.578125 -0.890625 1.671875 -1.34375q1.109375 -0.453125 2.453125 -0.453125q1.484375 0 2.609375 0.484375q1.140625 0.46875 1.75 1.40625q0.609375 0.921875 0.65625 2.09375l-1.6875 0.125q-0.140625 -1.265625 -0.9375 -1.90625q-0.78125 -0.65625 -2.3125 -0.65625q-1.609375 0 -2.34375 0.59375q-0.734375 0.59375 -0.734375 1.421875q0 0.71875 0.53125 1.171875q0.5 0.46875 2.65625 0.96875q2.15625 0.484375 2.953125 0.84375q1.171875 0.53125 1.71875 1.359375q0.5625 0.828125 0.5625 1.90625q0 1.0625 -0.609375 2.015625q-0.609375 0.9375 -1.75 1.46875q-1.140625 0.515625 -2.578125 0.515625q-1.8125 0 -3.046875 -0.53125q-1.21875 -0.53125 -1.921875 -1.59375q-0.6875 -1.0625 -0.71875 -2.40625zm12.990448 4.296875l0 -13.359375l2.65625 0l3.15625 9.453125q0.4375 1.328125 0.640625 1.984375q0.234375 -0.734375 0.703125 -2.140625l3.203125 -9.296875l2.375 0l0 13.359375l-1.703125 0l0 -11.171875l-3.875 11.171875l-1.59375 0l-3.859375 -11.375l0 11.375l-1.703125 0z" fill-rule="nonzero"/>
        <path fill="#000000" fill-opacity="0.0" d="m232.0 344.0l144.0 0l0 48.0l-144.0 0z" fill-rule="evenodd"/>
        <path fill="#000000" d="m277.45987 370.91998l-2.96875 -9.671875l1.703125 0l1.53125 5.578125l0.578125 2.078125q0.046875 -0.15625 0.5 -2.0l1.546875 -5.65625l1.6875 0l1.4375 5.609375l0.484375 1.84375l0.5625 -1.859375l1.65625 -5.59375l1.59375 0l-3.03125 9.671875l-1.703125 0l-1.53125 -5.796875l-0.375 -1.640625l-1.953125 7.4375l-1.71875 0zm18.00418 -1.1875q-0.921875 0.765625 -1.765625 1.09375q-0.828125 0.3125 -1.796875 0.3125q-1.59375 0 -2.453125 -0.78125q-0.859375 -0.78125 -0.859375 -1.984375q0 -0.71875 0.328125 -1.296875q0.328125 -0.59375 0.84375 -0.9375q0.53125 -0.359375 1.1875 -0.546875q0.46875 -0.125 1.453125 -0.25q1.984375 -0.234375 2.921875 -0.5625q0.015625 -0.34375 0.015625 -0.421875q0 -1.0 -0.46875 -1.421875q-0.625 -0.546875 -1.875 -0.546875q-1.15625 0 -1.703125 0.40625q-0.546875 0.40625 -0.8125 1.421875l-1.609375 -0.21875q0.21875 -1.015625 0.71875 -1.640625q0.5 -0.640625 1.453125 -0.984375q0.953125 -0.34375 2.1875 -0.34375q1.25 0 2.015625 0.296875q0.78125 0.28125 1.140625 0.734375q0.375 0.4375 0.515625 1.109375q0.078125 0.421875 0.078125 1.515625l0 2.1875q0 2.28125 0.109375 2.890625q0.109375 0.59375 0.40625 1.15625l-1.703125 0q-0.265625 -0.515625 -0.328125 -1.1875zm-0.140625 -3.671875q-0.890625 0.375 -2.671875 0.625q-1.015625 0.140625 -1.4375 0.328125q-0.421875 0.1875 -0.65625 0.53125q-0.21875 0.34375 -0.21875 0.78125q0 0.65625 0.5 1.09375q0.5 0.4375 1.453125 0.4375q0.9375 0 1.671875 -0.40625q0.75 -0.421875 1.09375 -1.140625q0.265625 -0.5625 0.265625 -1.640625l0 -0.609375zm6.8913574 4.859375l-3.6875 -9.671875l1.734375 0l2.078125 5.796875q0.328125 0.9375 0.625 1.9375q0.203125 -0.765625 0.609375 -1.828125l2.140625 -5.90625l1.6875 0l-3.65625 9.671875l-1.53125 0zm13.265625 -3.109375l1.6875 0.203125q-0.40625 1.484375 -1.484375 2.3125q-1.078125 0.8125 -2.765625 0.8125q-2.125 0 -3.375 -1.296875q-1.234375 -1.3125 -1.234375 -3.671875q0 -2.453125 1.25 -3.796875q1.265625 -1.34375 3.265625 -1.34375q1.9375 0 3.15625 1.328125q1.234375 1.3125 1.234375 3.703125q0 0.15625 0 0.4375l-7.21875 0q0.09375 1.59375 0.90625 2.453125q0.8125 0.84375 2.015625 0.84375q0.90625 0 1.546875 -0.46875q0.640625 -0.484375 1.015625 -1.515625zm-5.390625 -2.65625l5.40625 0q-0.109375 -1.21875 -0.625 -1.828125q-0.78125 -0.953125 -2.03125 -0.953125q-1.125 0 -1.90625 0.765625q-0.765625 0.75 -0.84375 2.015625zm13.871521 -0.828125q0 -2.359375 0.484375 -3.796875q0.484375 -1.453125 1.4375 -2.234375q0.96875 -0.78125 2.421875 -0.78125q1.078125 0 1.890625 0.4375q0.8125 0.421875 1.328125 1.25q0.53125 0.8125 0.828125 1.984375q0.3125 1.15625 0.3125 3.140625q0 2.359375 -0.484375 3.8125q-0.484375 1.4375 -1.453125 2.234375q-0.953125 0.78125 -2.421875 0.78125q-1.921875 0 -3.03125 -1.390625q-1.3125 -1.671875 -1.3125 -5.4375zm1.671875 0q0 3.296875 0.765625 4.390625q0.78125 1.078125 1.90625 1.078125q1.140625 0 1.90625 -1.09375q0.765625 -1.09375 0.765625 -4.375q0 -3.296875 -0.765625 -4.375q-0.765625 -1.078125 -1.921875 -1.078125q-1.125 0 -1.796875 0.953125q-0.859375 1.21875 -0.859375 4.5z" fill-rule="nonzero"/>
        <path fill="#000000" fill-opacity="0.0" d="m410.05832 344.0l144.00003 0l0 48.0l-144.00003 0z" fill-rule="evenodd"/>
        <path fill="#000000" d="m434.78952 370.91998l-2.96875 -9.671875l1.703125 0l1.53125 5.578125l0.578125 2.078125q0.046875 -0.15625 0.5 -2.0l1.546875 -5.65625l1.6875 0l1.4375 5.609375l0.484375 1.84375l0.5625 -1.859375l1.65625 -5.59375l1.59375 0l-3.03125 9.671875l-1.703125 0l-1.53125 -5.796875l-0.375 -1.640625l-1.953125 7.4375l-1.71875 0zm18.004211 -1.1875q-0.921875 0.765625 -1.765625 1.09375q-0.828125 0.3125 -1.796875 0.3125q-1.59375 0 -2.453125 -0.78125q-0.859375 -0.78125 -0.859375 -1.984375q0 -0.71875 0.328125 -1.296875q0.328125 -0.59375 0.84375 -0.9375q0.53125 -0.359375 1.1875 -0.546875q0.46875 -0.125 1.453125 -0.25q1.984375 -0.234375 2.921875 -0.5625q0.015625 -0.34375 0.015625 -0.421875q0 -1.0 -0.46875 -1.421875q-0.625 -0.546875 -1.875 -0.546875q-1.15625 0 -1.703125 0.40625q-0.546875 0.40625 -0.8125 1.421875l-1.609375 -0.21875q0.21875 -1.015625 0.71875 -1.640625q0.5 -0.640625 1.453125 -0.984375q0.953125 -0.34375 2.1875 -0.34375q1.25 0 2.015625 0.296875q0.78125 0.28125 1.140625 0.734375q0.375 0.4375 0.515625 1.109375q0.078125 0.421875 0.078125 1.515625l0 2.1875q0 2.28125 0.109375 2.890625q0.109375 0.59375 0.40625 1.15625l-1.703125 0q-0.265625 -0.515625 -0.328125 -1.1875zm-0.140625 -3.671875q-0.890625 0.375 -2.671875 0.625q-1.015625 0.140625 -1.4375 0.328125q-0.421875 0.1875 -0.65625 0.53125q-0.21875 0.34375 -0.21875 0.78125q0 0.65625 0.5 1.09375q0.5 0.4375 1.453125 0.4375q0.9375 0 1.671875 -0.40625q0.75 -0.421875 1.09375 -1.140625q0.265625 -0.5625 0.265625 -1.640625l0 -0.609375zm6.891327 4.859375l-3.6875 -9.671875l1.734375 0l2.078125 5.796875q0.328125 0.9375 0.625 1.9375q0.203125 -0.765625 0.609375 -1.828125l2.140625 -5.90625l1.6875 0l-3.65625 9.671875l-1.53125 0zm13.265625 -3.109375l1.6875 0.203125q-0.40625 1.484375 -1.484375 2.3125q-1.078125 0.8125 -2.765625 0.8125q-2.125 0 -3.375 -1.296875q-1.234375 -1.3125 -1.234375 -3.671875q0 -2.453125 1.25 -3.796875q1.265625 -1.34375 3.265625 -1.34375q1.9375 0 3.15625 1.328125q1.234375 1.3125 1.234375 3.703125q0 0.15625 0 0.4375l-7.21875 0q0.09375 1.59375 0.90625 2.453125q0.8125 0.84375 2.015625 0.84375q0.90625 0 1.546875 -0.46875q0.640625 -0.484375 1.015625 -1.515625zm-5.390625 -2.65625l5.40625 0q-0.109375 -1.21875 -0.625 -1.828125q-0.78125 -0.953125 -2.03125 -0.953125q-1.125 0 -1.90625 0.765625q-0.765625 0.75 -0.84375 2.015625zm20.043396 5.765625l-1.640625 0l0 -10.453125q-0.59375 0.5625 -1.5625 1.140625q-0.953125 0.5625 -1.71875 0.84375l0 -1.59375q1.375 -0.640625 2.40625 -1.5625q1.03125 -0.921875 1.453125 -1.78125l1.0625 0l0 13.40625zm12.965271 3.921875q-1.359375 -1.703125 -2.296875 -4.0q-0.9375 -2.296875 -0.9375 -4.765625q0 -2.15625 0.703125 -4.140625q0.828125 -2.3125 2.53125 -4.59375l1.171875 0q-1.09375 1.890625 -1.453125 2.703125q-0.546875 1.25 -0.875 2.625q-0.390625 1.703125 -0.390625 3.421875q0 4.375 2.71875 8.75l-1.171875 0zm6.665802 -5.390625l0.234375 1.453125q-0.6875 0.140625 -1.234375 0.140625q-0.890625 0 -1.390625 -0.28125q-0.484375 -0.28125 -0.6875 -0.734375q-0.203125 -0.46875 -0.203125 -1.9375l0 -5.578125l-1.203125 0l0 -1.265625l1.203125 0l0 -2.390625l1.625 -0.984375l0 3.375l1.65625 0l0 1.265625l-1.65625 0l0 5.671875q0 0.6875 0.078125 0.890625q0.09375 0.203125 0.28125 0.328125q0.203125 0.109375 0.578125 0.109375q0.265625 0 0.71875 -0.0625zm7.917694 0.28125q-0.921875 0.765625 -1.765625 1.09375q-0.828125 0.3125 -1.796875 0.3125q-1.59375 0 -2.453125 -0.78125q-0.859375 -0.78125 -0.859375 -1.984375q0 -0.71875 0.328125 -1.296875q0.328125 -0.59375 0.84375 -0.9375q0.53125 -0.359375 1.1875 -0.546875q0.46875 -0.125 1.453125 -0.25q1.984375 -0.234375 2.921875 -0.5625q0.015625 -0.34375 0.015625 -0.421875q0 -1.0 -0.46875 -1.421875q-0.625 -0.546875 -1.875 -0.546875q-1.15625 0 -1.703125 0.40625q-0.546875 0.40625 -0.8125 1.421875l-1.609375 -0.21875q0.21875 -1.015625 0.71875 -1.640625q0.5 -0.640625 1.453125 -0.984375q0.953125 -0.34375 2.1875 -0.34375q1.25 0 2.015625 0.296875q0.78125 0.28125 1.140625 0.734375q0.375 0.4375 0.515625 1.109375q0.078125 0.421875 0.078125 1.515625l0 2.1875q0 2.28125 0.109375 2.890625q0.109375 0.59375 0.40625 1.15625l-1.703125 0q-0.265625 -0.515625 -0.328125 -1.1875zm-0.140625 -3.671875q-0.890625 0.375 -2.671875 0.625q-1.015625 0.140625 -1.4375 0.328125q-0.421875 0.1875 -0.65625 0.53125q-0.21875 0.34375 -0.21875 0.78125q0 0.65625 0.5 1.09375q0.5 0.4375 1.453125 0.4375q0.9375 0 1.671875 -0.40625q0.75 -0.421875 1.09375 -1.140625q0.265625 -0.5625 0.265625 -1.640625l0 -0.609375zm4.2038574 -6.609375l0 -1.890625l1.640625 0l0 1.890625l-1.640625 0zm0 11.46875l0 -9.671875l1.640625 0l0 9.671875l-1.640625 0zm4.0979004 0l0 -13.359375l1.640625 0l0 13.359375l-1.640625 0zm5.2698364 3.921875l-1.1875 0q2.734375 -4.375 2.734375 -8.75q0 -1.71875 -0.390625 -3.390625q-0.3125 -1.375 -0.875 -2.625q-0.359375 -0.828125 -1.46875 -2.734375l1.1875 0q1.703125 2.28125 2.53125 4.59375q0.6875 1.984375 0.6875 4.140625q0 2.46875 -0.9375 4.765625q-0.9375 2.296875 -2.28125 4.0z" fill-rule="nonzero"/>
      </g>
    </g>
  </g>
  <g/>
</svg>
