<svg xmlns="http://www.w3.org/2000/svg" viewBox="0 0 630 354"><defs><style>.cls-1{fill:#6f7475;}.cls-2,.cls-4,.cls-6,.cls-9{fill:none;}.cls-2{stroke:#1a1a1a;stroke-width:0.78519px;}.cls-2,.cls-4{stroke-miterlimit:10;}.cls-3{fill:#1a1a1a;}.cls-4,.cls-6,.cls-9{stroke:gray;}.cls-4{stroke-width:2.06179px;opacity:0.25;}.cls-4,.cls-5{isolation:isolate;}.cls-6,.cls-9{stroke-width:2.03086px;}.cls-7{fill:#fff;}.cls-8{fill:#76b900;}.cls-9{stroke-linecap:square;}</style></defs><g id="arrow"><path class="cls-1" d="M214.63927,275.00744v-5.96l-1.25391,1.10352v-.77344l1.25391-1.084h.67969v6.71387Z"/><path class="cls-1" d="M219.19981,275.06408a2.5587,2.5587,0,0,1-1.90527-.66993l.45313-.45214a1.89546,1.89546,0,0,0,1.44238.5371c.76367,0,1.23535-.27343,1.23535-.82031,0-.40527-.23535-.63183-.77344-.67871l-.76367-.0664c-.90527-.0752-1.38574-.48047-1.38574-1.24415,0-.84863.7168-1.35839,1.706-1.35839a2.62439,2.62439,0,0,1,1.66993.5l-.44336.44336a1.97912,1.97912,0,0,0-1.23536-.36817c-.67871,0-1.0371.293-1.0371.76367,0,.39649.22558.63184.81054.67969l.74512.06543c.81055.0752,1.36719.38672,1.36719,1.25488C221.08556,274.54552,220.32188,275.06408,219.19981,275.06408Z"/><path class="cls-1" d="M223.38341,275.00744a1.1384,1.1384,0,0,1-1.18848-1.24512v-2.84766h-.585v-.51855h.585V268.944h.67871v1.45215h.99024v.51855h-.99024v2.8291c0,.42481.19824.67871.63184.67871h.3584v.585Z"/><path class="cls-1" d="M224.84142,272.78185V272.15h2.584v.63184Z"/><path class="cls-1" d="M230.24181,277.13829a2.04739,2.04739,0,0,1-1.5752-.62207l.44336-.43359a1.42891,1.42891,0,0,0,1.11231.46191c.89648,0,1.27343-.63183,1.27343-1.42382v-.72657a1.49352,1.49352,0,0,1-1.30175.60352,1.59269,1.59269,0,0,1-1.12208-.415,3.58724,3.58724,0,0,1,0-3.86621,1.61644,1.61644,0,0,1,1.13184-.40527,1.4633,1.4633,0,0,1,1.30176.60351v-.54687h.66894V275.149A1.84577,1.84577,0,0,1,230.24181,277.13829Zm.10351-6.22363c-1.00879,0-1.16015.86817-1.16015,1.73535s.15136,1.73535,1.16015,1.73535,1.15039-.86816,1.15039-1.73535S231.35411,270.91466,230.34532,270.91466Z"/><path class="cls-1" d="M234.05724,272.86681c0,1.01855.48047,1.60352,1.36718,1.60352a1.524,1.524,0,0,0,1.21582-.52832l.46289.40527a2.1254,2.1254,0,0,1-1.69824.7168c-1.22558,0-2.02734-.73536-2.02734-2.376,0-1.5.72656-2.377,1.90527-2.377,1.19727,0,1.9043.86816,1.9043,2.24414v.31152Zm2.30957-1.28223a1.1913,1.1913,0,0,0-2.16895,0,1.951,1.951,0,0,0-.14062.77344h2.45117A1.9326,1.9326,0,0,0,236.36681,271.58458Z"/><path class="cls-1" d="M241.36192,275.00744V272.15a1.08051,1.08051,0,0,0-1.1416-1.23535,1.09152,1.09152,0,0,0-1.15039,1.23535v2.85743h-.67871v-4.63965h.67871v.50976a1.67177,1.67177,0,0,1,1.30176-.5664,1.62953,1.62953,0,0,1,1.18848.43359,1.71553,1.71553,0,0,1,.48046,1.292v2.97071Z"/><path class="cls-1" d="M243.8756,272.86681c0,1.01855.48046,1.60352,1.36718,1.60352a1.524,1.524,0,0,0,1.21582-.52832l.46289.40527a2.12542,2.12542,0,0,1-1.69824.7168c-1.22558,0-2.02734-.73536-2.02734-2.376,0-1.5.72656-2.377,1.90527-2.377,1.19727,0,1.9043.86816,1.9043,2.24414v.31152Zm2.30957-1.28223a1.1913,1.1913,0,0,0-2.16895,0,1.951,1.951,0,0,0-.14062.77344h2.45117A1.9326,1.9326,0,0,0,246.18517,271.58458Z"/><path class="cls-1" d="M250.80235,271.25451a.97047.97047,0,0,0-.80175-.33985,1.13409,1.13409,0,0,0-1.11329,1.24512v2.84766h-.67871v-4.63965h.67871v.56543a1.56113,1.56113,0,0,1,1.30176-.62207,1.42777,1.42777,0,0,1,1.11231.43359Z"/><path class="cls-1" d="M254.47618,275.00744v-.44336a1.63,1.63,0,0,1-1.33887.5,1.65148,1.65148,0,0,1-1.31054-.42481,1.33413,1.33413,0,0,1-.34961-.94238c0-.81153.5664-1.33887,1.60351-1.33887h1.39551v-.44336c0-.67871-.33887-1.01855-1.18847-1.01855a1.21758,1.21758,0,0,0-1.16895.52832l-.46191-.42481a1.79916,1.79916,0,0,1,1.64062-.68847c1.24512,0,1.85742.53808,1.85742,1.54687v3.14942Zm0-2.14063H253.1754c-.69824,0-1.03809.2832-1.03809.82031,0,.53809.33008.792,1.06641.792a1.35928,1.35928,0,0,0,1.03711-.31054,1.07361,1.07361,0,0,0,.23535-.80176Z"/><path class="cls-1" d="M257.86778,275.00744a1.1384,1.1384,0,0,1-1.18847-1.24512v-2.84766h-.585v-.51855h.585V268.944h.67871v1.45215h.99023v.51855H257.358v2.8291c0,.42481.19824.67871.63183.67871h.3584v.585Z"/><path class="cls-1" d="M259.42052,269.04747v-.76367h.76465v.76367Zm.03808,5.96v-4.63965h.67871v4.63965Z"/><path class="cls-1" d="M264.58556,274.53576a1.93721,1.93721,0,0,1-2.65918,0,3.30311,3.30311,0,0,1,0-3.69629,1.93721,1.93721,0,0,1,2.65918,0,3.29842,3.29842,0,0,1,0,3.69629Zm-.48047-3.28125a1.18978,1.18978,0,0,0-.84863-.33985,1.1668,1.1668,0,0,0-.83887.33985,2.90612,2.90612,0,0,0,0,2.86621,1.16683,1.16683,0,0,0,.83887.33984,1.18981,1.18981,0,0,0,.84863-.33984,2.97334,2.97334,0,0,0,0-2.86621Z"/><path class="cls-1" d="M269.33556,275.00744V272.15a1.08051,1.08051,0,0,0-1.1416-1.23535,1.09152,1.09152,0,0,0-1.1504,1.23535v2.85743h-.67871v-4.63965h.67871v.50976a1.67179,1.67179,0,0,1,1.30176-.5664,1.62951,1.62951,0,0,1,1.18848.43359,1.7155,1.7155,0,0,1,.48047,1.292v2.97071Z"/><path class="cls-1" d="M277.93907,275.00744l-3.56543-5.38477v5.38477h-.71582v-6.71387h.67871l3.56446,5.36523v-5.36523h.71679v6.71387Z"/><path class="cls-1" d="M282.21446,275.00744h-.584l-2.207-6.71387h.75488l1.74414,5.43164,1.74512-5.43164h.7539Z"/><path class="cls-1" d="M285.22813,275.00744v-6.71387h.71583v6.07226h3.43261v.64161Z"/><path class="cls-1" d="M290.23106,269.04747v-.76367h.76465v.76367Zm.03809,5.96v-4.63965h.67871v4.63965Z"/><path class="cls-1" d="M295.38829,275.00744V272.15a1.08051,1.08051,0,0,0-1.1416-1.23535A1.09151,1.09151,0,0,0,293.0963,272.15v2.85743h-.67871v-4.63965h.67871v.50976a1.67177,1.67177,0,0,1,1.30176-.5664,1.62949,1.62949,0,0,1,1.18847.43359,1.7155,1.7155,0,0,1,.48047,1.292v2.97071Z"/><path class="cls-1" d="M300.53282,275.00744l-1.47168-2.376-.90527,1.03711v1.33887h-.67871v-6.71387h.67871v4.48828l2.09375-2.41406h.84863l-1.57519,1.77246,1.84863,2.86719Z"/><path class="cls-1" d="M296.26817,239.95958v-.60351l2.64942-3.36621a1.53345,1.53345,0,0,0,.37695-.99024,1.1697,1.1697,0,1,0-2.33789.00879H296.277a1.745,1.745,0,0,1,1.84864-1.81933,1.72276,1.72276,0,0,1,1.84863,1.81054,2.00411,2.00411,0,0,1-.53809,1.35742l-2.34765,2.999h2.88574v.60351Z"/><path class="cls-1" d="M304.12853,239.95958v-2.85742a1.08051,1.08051,0,0,0-1.14161-1.23535,1.09151,1.09151,0,0,0-1.15039,1.23535v2.85742h-.67871v-4.63964h.67871v.50976a1.6718,1.6718,0,0,1,1.30176-.56641,1.62953,1.62953,0,0,1,1.18848.4336,1.7155,1.7155,0,0,1,.48047,1.292v2.9707Z"/><path class="cls-1" d="M308.98985,239.95958v-.55664a1.50271,1.50271,0,0,1-1.32031.61328,1.61639,1.61639,0,0,1-1.13183-.40527,3.71868,3.71868,0,0,1,0-3.94238,1.6164,1.6164,0,0,1,1.13183-.40528,1.49007,1.49007,0,0,1,1.31055.59473v-2.6123h.67969v6.71386Zm-1.16894-4.09277c-1.00977,0-1.16992.86816-1.16992,1.77344s.16015,1.77246,1.16992,1.77246c1.00879,0,1.15918-.86719,1.15918-1.77246S308.8297,235.86681,307.82091,235.86681Z"/><path class="cls-1" d="M310.984,237.734v-.63184h2.584v.63184Z"/><path class="cls-1" d="M316.38438,242.09044a2.04737,2.04737,0,0,1-1.57519-.62207l.44336-.43359a1.42889,1.42889,0,0,0,1.1123.46191c.89649,0,1.27344-.63183,1.27344-1.42383v-.72656a1.49354,1.49354,0,0,1-1.30176.60352,1.59268,1.59268,0,0,1-1.12207-.415,3.58719,3.58719,0,0,1,0-3.86621,1.61644,1.61644,0,0,1,1.13184-.40528,1.46332,1.46332,0,0,1,1.30176.60352v-.54687h.66894v4.78125A1.84577,1.84577,0,0,1,316.38438,242.09044Zm.10352-6.22363c-1.00879,0-1.16016.86816-1.16016,1.73535s.15137,1.73535,1.16016,1.73535,1.15039-.86816,1.15039-1.73535S317.49669,235.86681,316.4879,235.86681Z"/><path class="cls-1" d="M320.19981,237.819c0,1.01855.48047,1.60351,1.36719,1.60351a1.524,1.524,0,0,0,1.21582-.52832l.46289.40528a2.12541,2.12541,0,0,1-1.69824.71679c-1.22559,0-2.02734-.73535-2.02734-2.376,0-1.5.72656-2.377,1.90527-2.377,1.19727,0,1.9043.86817,1.9043,2.24415v.31152Zm2.30957-1.28223a1.19129,1.19129,0,0,0-2.16894,0,1.94749,1.94749,0,0,0-.14063.77344H322.651A1.92893,1.92893,0,0,0,322.50938,236.53673Z"/><path class="cls-1" d="M327.5045,239.95958v-2.85742a1.08051,1.08051,0,0,0-1.1416-1.23535,1.09151,1.09151,0,0,0-1.15039,1.23535v2.85742h-.67871v-4.63964h.67871v.50976a1.67178,1.67178,0,0,1,1.30176-.56641,1.62949,1.62949,0,0,1,1.18847.4336,1.7155,1.7155,0,0,1,.48047,1.292v2.9707Z"/><path class="cls-1" d="M330.01817,237.819c0,1.01855.48047,1.60351,1.36719,1.60351a1.524,1.524,0,0,0,1.21582-.52832l.46289.40528a2.12541,2.12541,0,0,1-1.69824.71679c-1.22559,0-2.02734-.73535-2.02734-2.376,0-1.5.72656-2.377,1.90527-2.377,1.19727,0,1.9043.86817,1.9043,2.24415v.31152Zm2.30957-1.28223a1.19129,1.19129,0,0,0-2.16894,0,1.94749,1.94749,0,0,0-.14063.77344h2.45118A1.92893,1.92893,0,0,0,332.32774,236.53673Z"/><path class="cls-1" d="M336.94493,236.20665a.9705.9705,0,0,0-.80176-.33984,1.13409,1.13409,0,0,0-1.11328,1.24512v2.84765h-.67871v-4.63964h.67871v.5664a1.5593,1.5593,0,0,1,1.30176-.623,1.42778,1.42778,0,0,1,1.11231.4336Z"/><path class="cls-1" d="M340.61974,239.95958v-.44336a1.62994,1.62994,0,0,1-1.33887.5,1.6515,1.6515,0,0,1-1.31055-.4248,1.33417,1.33417,0,0,1-.34961-.94238c0-.81153.56641-1.33887,1.60352-1.33887h1.39551v-.44336c0-.67969-.33887-1.01855-1.18848-1.01855a1.21758,1.21758,0,0,0-1.16895.52832l-.46191-.42481a1.7992,1.7992,0,0,1,1.64063-.68848c1.24511,0,1.85742.53809,1.85742,1.54688v3.14941Zm0-2.14062H339.319c-.69825,0-1.03809.2832-1.03809.82031,0,.53809.33008.792,1.06641.792a1.35926,1.35926,0,0,0,1.0371-.31054,1.07361,1.07361,0,0,0,.23536-.80176Z"/><path class="cls-1" d="M344.01134,239.95958a1.13788,1.13788,0,0,1-1.18848-1.24511v-2.84766h-.585v-.51855h.585v-1.45215h.67871v1.45215h.99024v.51855h-.99024v2.8291c0,.42481.19824.67871.63184.67871h.3584v.585Z"/><path class="cls-1" d="M345.56407,233.99962V233.236h.76465v.76367Zm.03809,5.96v-4.63964h.67871v4.63964Z"/><path class="cls-1" d="M350.72911,239.4879a1.93721,1.93721,0,0,1-2.65918,0,3.30311,3.30311,0,0,1,0-3.69629,1.93721,1.93721,0,0,1,2.65918,0,3.29837,3.29837,0,0,1,0,3.69629Zm-.48047-3.28125a1.18978,1.18978,0,0,0-.84863-.33984,1.17076,1.17076,0,0,0-.83984.33984,2.91263,2.91263,0,0,0,0,2.86621,1.17072,1.17072,0,0,0,.83984.33985,1.18975,1.18975,0,0,0,.84863-.33985,2.97327,2.97327,0,0,0,0-2.86621Z"/><path class="cls-1" d="M355.47911,239.95958v-2.85742a1.08051,1.08051,0,0,0-1.1416-1.23535,1.09151,1.09151,0,0,0-1.15039,1.23535v2.85742h-.67871v-4.63964h.67871v.50976a1.67178,1.67178,0,0,1,1.30176-.56641,1.62949,1.62949,0,0,1,1.18847.4336,1.7155,1.7155,0,0,1,.48047,1.292v2.9707Z"/><path class="cls-1" d="M364.08263,239.95958l-3.56543-5.38476v5.38476h-.71582v-6.71386h.67871l3.56445,5.36523v-5.36523h.7168v6.71386Z"/><path class="cls-1" d="M368.359,239.95958h-.585l-2.207-6.71386h.75488l1.74415,5.43164,1.74511-5.43164h.75391Z"/><path class="cls-1" d="M371.37169,239.95958v-6.71386h.71582V239.318h3.43262v.6416Z"/><path class="cls-1" d="M376.37462,233.99962V233.236h.76465v.76367Zm.03809,5.96v-4.63964h.67871v4.63964Z"/><path class="cls-1" d="M381.53185,239.95958v-2.85742a1.08051,1.08051,0,0,0-1.14161-1.23535,1.09151,1.09151,0,0,0-1.15039,1.23535v2.85742h-.67871v-4.63964h.67871v.50976a1.6718,1.6718,0,0,1,1.30176-.56641,1.62953,1.62953,0,0,1,1.18848.4336,1.7155,1.7155,0,0,1,.48047,1.292v2.9707Z"/><path class="cls-1" d="M386.67638,239.95958l-1.47168-2.376-.90528,1.03711v1.33886h-.67871v-6.71386h.67871V237.734l2.09375-2.41406h.84864l-1.5752,1.77343,1.84863,2.86621Z"/><path class="cls-1" d="M454.68321,88.70568v1.06543h-.66894V88.70568h-2.67871V88.0924l2.42382-5.03516h.72559l-2.42285,5.03516h1.95215V86.1881h.66894v1.9043h.82032v.61328Z"/><path class="cls-1" d="M457.79161,89.77111a1.13789,1.13789,0,0,1-1.18848-1.24512V85.67833h-.585v-.51855h.585V83.70763h.67872v1.45215h.99023v.51855h-.99023v2.82911c0,.4248.19824.67871.63183.67871h.3584v.585Z"/><path class="cls-1" d="M462.35313,89.77111V86.90392a1.07047,1.07047,0,0,0-1.13183-1.22559,1.09479,1.09479,0,0,0-1.16016,1.22559v2.86719h-.67871V83.05724h.67871v2.584a1.65719,1.65719,0,0,1,1.30176-.5664,1.56838,1.56838,0,0,1,1.66895,1.71679v2.9795Z"/><path class="cls-1" d="M464.30919,87.54552v-.63183h2.584v.63183Z"/><path class="cls-1" d="M469.70958,91.902a2.04741,2.04741,0,0,1-1.5752-.62207l.44336-.4336a1.42893,1.42893,0,0,0,1.11231.46192c.89648,0,1.27344-.63184,1.27344-1.42383v-.72656a1.49357,1.49357,0,0,1-1.30176.60351,1.59264,1.59264,0,0,1-1.12207-.415,3.58719,3.58719,0,0,1,0-3.86621,1.61641,1.61641,0,0,1,1.13183-.40527,1.4633,1.4633,0,0,1,1.30176.60351v-.54687h.66895v4.78125A1.84578,1.84578,0,0,1,469.70958,91.902Zm.10352-6.22364c-1.00879,0-1.16016.86817-1.16016,1.73536s.15137,1.73535,1.16016,1.73535,1.15039-.86817,1.15039-1.73535S470.82188,85.67833,469.8131,85.67833Z"/><path class="cls-1" d="M473.525,87.63048c0,1.01856.48047,1.60352,1.36719,1.60352a1.524,1.524,0,0,0,1.21582-.52832l.46289.40527a2.12543,2.12543,0,0,1-1.69824.7168c-1.22559,0-2.02735-.73535-2.02735-2.376,0-1.5.72656-2.37695,1.90528-2.37695,1.19726,0,1.90429.86816,1.90429,2.24414v.31152Zm2.30957-1.28222a1.19129,1.19129,0,0,0-2.16895,0,1.95094,1.95094,0,0,0-.14062.77343h2.45117A1.93234,1.93234,0,0,0,475.83458,86.34826Z"/><path class="cls-1" d="M480.8297,89.77111V86.91369a1.08051,1.08051,0,0,0-1.1416-1.23536,1.09152,1.09152,0,0,0-1.15039,1.23536v2.85742H477.859V85.13146h.67872v.50976a1.67175,1.67175,0,0,1,1.30175-.5664,1.62955,1.62955,0,0,1,1.18848.43359,1.7155,1.7155,0,0,1,.48047,1.292v2.97071Z"/><path class="cls-1" d="M483.34337,87.63048c0,1.01856.48047,1.60352,1.36719,1.60352a1.524,1.524,0,0,0,1.21582-.52832l.46289.40527a2.12543,2.12543,0,0,1-1.69824.7168c-1.22559,0-2.02735-.73535-2.02735-2.376,0-1.5.72656-2.37695,1.90528-2.37695,1.19726,0,1.90429.86816,1.90429,2.24414v.31152Zm2.30957-1.28222a1.19129,1.19129,0,0,0-2.16895,0,1.95094,1.95094,0,0,0-.14062.77343h2.45117A1.93234,1.93234,0,0,0,485.65294,86.34826Z"/><path class="cls-1" d="M490.27013,86.01818a.97049.97049,0,0,0-.80176-.33985,1.13409,1.13409,0,0,0-1.11328,1.24512v2.84766h-.67871V85.13146h.67871v.56543a1.56113,1.56113,0,0,1,1.30176-.62207,1.42775,1.42775,0,0,1,1.1123.43359Z"/><path class="cls-1" d="M493.94493,89.77111v-.44336a1.63,1.63,0,0,1-1.33887.5,1.65148,1.65148,0,0,1-1.31054-.42481,1.33413,1.33413,0,0,1-.34961-.94238c0-.81152.5664-1.33887,1.60351-1.33887h1.39551v-.44336c0-.67871-.33887-1.01855-1.18847-1.01855a1.21758,1.21758,0,0,0-1.16895.52832l-.46191-.42481a1.79918,1.79918,0,0,1,1.64062-.68847c1.24512,0,1.85742.53808,1.85742,1.54687v3.14942Zm0-2.14063h-1.30078c-.69824,0-1.03809.28321-1.03809.82031,0,.53809.33008.792,1.06641.792a1.35925,1.35925,0,0,0,1.03711-.31055,1.07361,1.07361,0,0,0,.23535-.80176Z"/><path class="cls-1" d="M497.33653,89.77111a1.13788,1.13788,0,0,1-1.18847-1.24512V85.67833h-.585v-.51855h.585V83.70763h.67871v1.45215h.99023v.51855h-.99023v2.82911c0,.4248.19824.67871.63183.67871h.3584v.585Z"/><path class="cls-1" d="M498.88927,83.81115v-.76368h.76465v.76368Zm.03808,5.96V85.13146h.67871v4.63965Z"/><path class="cls-1" d="M504.05431,89.29943a1.93721,1.93721,0,0,1-2.65918,0,3.30311,3.30311,0,0,1,0-3.69629,1.93721,1.93721,0,0,1,2.65918,0,3.29842,3.29842,0,0,1,0,3.69629Zm-.48047-3.28125a1.18978,1.18978,0,0,0-.84863-.33985,1.17075,1.17075,0,0,0-.83985.33985,2.9127,2.9127,0,0,0,0,2.86621,1.17074,1.17074,0,0,0,.83985.33984,1.18977,1.18977,0,0,0,.84863-.33984,2.97334,2.97334,0,0,0,0-2.86621Z"/><path class="cls-1" d="M508.80431,89.77111V86.91369a1.08051,1.08051,0,0,0-1.1416-1.23536,1.09152,1.09152,0,0,0-1.1504,1.23536v2.85742h-.67871V85.13146h.67871v.50976a1.67179,1.67179,0,0,1,1.30176-.5664,1.62955,1.62955,0,0,1,1.18848.43359,1.7155,1.7155,0,0,1,.48047,1.292v2.97071Z"/><path class="cls-1" d="M517.40782,89.77111l-3.56543-5.38477v5.38477h-.71582V83.05724h.67871l3.56446,5.36523V83.05724h.71679v6.71387Z"/><path class="cls-1" d="M521.68419,89.77111h-.585l-2.207-6.71387h.75488l1.74414,5.43164,1.74512-5.43164h.7539Z"/><path class="cls-1" d="M524.69688,89.77111V83.05724h.71583v6.07227h3.43261v.6416Z"/><path class="cls-1" d="M529.69981,83.81115v-.76368h.76465v.76368Zm.03809,5.96V85.13146h.67871v4.63965Z"/><path class="cls-1" d="M534.857,89.77111V86.91369a1.08051,1.08051,0,0,0-1.1416-1.23536,1.09152,1.09152,0,0,0-1.15039,1.23536v2.85742h-.67871V85.13146h.67871v.50976a1.67177,1.67177,0,0,1,1.30176-.5664,1.62953,1.62953,0,0,1,1.18847.43359,1.7155,1.7155,0,0,1,.48047,1.292v2.97071Z"/><path class="cls-1" d="M540.00157,89.77111l-1.47168-2.376-.90527,1.03711v1.33887h-.67871V83.05724h.67871v4.48828l2.09375-2.41406h.84863l-1.57519,1.77246,1.84863,2.86719Z"/><path class="cls-1" d="M373.79649,157.775a1.7832,1.7832,0,0,1-1.9707-1.77343h.67871a1.18574,1.18574,0,0,0,1.292,1.16992,1.23034,1.23034,0,0,0,1.292-1.30176,1.168,1.168,0,0,0-1.32032-1.30176h-.1416v-.59375h.1416a1.08057,1.08057,0,0,0,1.19727-1.21679,1.12418,1.12418,0,0,0-1.16895-1.22559,1.13789,1.13789,0,0,0-1.207,1.12207h-.67968a1.78671,1.78671,0,0,1,1.88671-1.72559,1.7398,1.7398,0,0,1,1.84766,1.82032,1.50472,1.50472,0,0,1-.90527,1.48925,1.57405,1.57405,0,0,1,1.02832,1.64161A1.82051,1.82051,0,0,1,373.79649,157.775Z"/><path class="cls-1" d="M379.55431,153.95568a.97049.97049,0,0,0-.80176-.33985,1.13353,1.13353,0,0,0-1.11328,1.24512v2.84766h-.67871V153.069h.67871v.56543a1.56113,1.56113,0,0,1,1.30176-.62207,1.42776,1.42776,0,0,1,1.1123.43359Z"/><path class="cls-1" d="M383.14415,157.70861V157.152a1.50274,1.50274,0,0,1-1.32031.61328A1.61644,1.61644,0,0,1,380.692,157.36a3.71868,3.71868,0,0,1,0-3.94238,1.61644,1.61644,0,0,1,1.13184-.40527,1.49,1.49,0,0,1,1.31054.59472v-2.6123h.67969v6.71387Zm-1.16894-4.09278c-1.00977,0-1.16993.86817-1.16993,1.77344s.16016,1.77246,1.16993,1.77246c1.00878,0,1.15917-.86719,1.15917-1.77246S382.984,153.61583,381.97521,153.61583Z"/><path class="cls-1" d="M385.13829,155.483v-.63183h2.584v.63183Z"/><path class="cls-1" d="M390.53868,159.83947a2.04737,2.04737,0,0,1-1.57519-.62207l.44336-.4336a1.42889,1.42889,0,0,0,1.1123.46192c.89648,0,1.27344-.63184,1.27344-1.42383v-.72656a1.49357,1.49357,0,0,1-1.30176.60351,1.59264,1.59264,0,0,1-1.12207-.415,3.58719,3.58719,0,0,1,0-3.86621,1.61644,1.61644,0,0,1,1.13184-.40527,1.46329,1.46329,0,0,1,1.30175.60351V153.069h.66895v4.78125A1.84578,1.84578,0,0,1,390.53868,159.83947Zm.10352-6.22364c-1.00879,0-1.16016.86817-1.16016,1.73536s.15137,1.73535,1.16016,1.73535,1.15039-.86817,1.15039-1.73535S391.651,153.61583,390.6422,153.61583Z"/><path class="cls-1" d="M394.35411,155.568c0,1.01856.48047,1.60352,1.36719,1.60352a1.524,1.524,0,0,0,1.21582-.52832l.46289.40527a2.12542,2.12542,0,0,1-1.69824.7168c-1.22559,0-2.02735-.73535-2.02735-2.376,0-1.5.72657-2.377,1.90528-2.377,1.19726,0,1.90429.86816,1.90429,2.24414v.31152Zm2.30957-1.28222a1.19128,1.19128,0,0,0-2.16894,0,1.95093,1.95093,0,0,0-.14063.77343h2.45117A1.93234,1.93234,0,0,0,396.66368,154.28576Z"/><path class="cls-1" d="M401.6588,157.70861v-2.85742a1.08051,1.08051,0,0,0-1.1416-1.23536,1.09152,1.09152,0,0,0-1.15039,1.23536v2.85742h-.67871V153.069h.67871v.50976a1.67175,1.67175,0,0,1,1.30175-.5664,1.62955,1.62955,0,0,1,1.18848.43359,1.7155,1.7155,0,0,1,.48047,1.292v2.97071Z"/><path class="cls-1" d="M404.17247,155.568c0,1.01856.48047,1.60352,1.36719,1.60352a1.524,1.524,0,0,0,1.21582-.52832l.46289.40527a2.12542,2.12542,0,0,1-1.69824.7168c-1.22559,0-2.02735-.73535-2.02735-2.376,0-1.5.72657-2.377,1.90528-2.377,1.19726,0,1.90429.86816,1.90429,2.24414v.31152Zm2.30957-1.28222a1.19128,1.19128,0,0,0-2.16894,0,1.95093,1.95093,0,0,0-.14063.77343h2.45117A1.93234,1.93234,0,0,0,406.482,154.28576Z"/><path class="cls-1" d="M411.09923,153.95568a.97048.97048,0,0,0-.80176-.33985,1.13353,1.13353,0,0,0-1.11328,1.24512v2.84766h-.67871V153.069h.67871v.56543a1.56113,1.56113,0,0,1,1.30176-.62207,1.42775,1.42775,0,0,1,1.1123.43359Z"/><path class="cls-1" d="M414.774,157.70861v-.44336a1.62994,1.62994,0,0,1-1.33886.5,1.65149,1.65149,0,0,1-1.31055-.42481,1.33413,1.33413,0,0,1-.34961-.94238c0-.81152.56641-1.33887,1.60352-1.33887h1.3955v-.44336c0-.67871-.33886-1.01855-1.18847-1.01855a1.21758,1.21758,0,0,0-1.16895.52832l-.46191-.42481a1.79921,1.79921,0,0,1,1.64062-.68847c1.24512,0,1.85742.53808,1.85742,1.54687v3.14942Zm0-2.14063h-1.30078c-.69824,0-1.03808.28321-1.03808.82031,0,.53809.33007.792,1.0664.792a1.35925,1.35925,0,0,0,1.03711-.31055,1.07361,1.07361,0,0,0,.23535-.80176Z"/><path class="cls-1" d="M418.16563,157.70861a1.13839,1.13839,0,0,1-1.18847-1.24512v-2.84766h-.585v-.51855h.585v-1.45215h.67871v1.45215h.99023v.51855h-.99023v2.82911c0,.4248.19824.67871.63184.67871h.35839v.585Z"/><path class="cls-1" d="M419.71837,151.74865V150.985h.76465v.76368Zm.03809,5.96V153.069h.67871v4.63965Z"/><path class="cls-1" d="M424.88341,157.23693a1.93721,1.93721,0,0,1-2.65918,0,3.30311,3.30311,0,0,1,0-3.69629,1.93721,1.93721,0,0,1,2.65918,0,3.29842,3.29842,0,0,1,0,3.69629Zm-.48047-3.28125a1.18978,1.18978,0,0,0-.84863-.33985,1.16681,1.16681,0,0,0-.83887.33985,2.90612,2.90612,0,0,0,0,2.86621,1.1668,1.1668,0,0,0,.83887.33984,1.18977,1.18977,0,0,0,.84863-.33984,2.97334,2.97334,0,0,0,0-2.86621Z"/><path class="cls-1" d="M429.63341,157.70861v-2.85742a1.08051,1.08051,0,0,0-1.1416-1.23536,1.09152,1.09152,0,0,0-1.15039,1.23536v2.85742h-.67871V153.069h.67871v.50976a1.67175,1.67175,0,0,1,1.30175-.5664,1.62955,1.62955,0,0,1,1.18848.43359,1.7155,1.7155,0,0,1,.48047,1.292v2.97071Z"/><path class="cls-1" d="M438.23692,157.70861l-3.56543-5.38477v5.38477h-.71582v-6.71387h.67871l3.56446,5.36523v-5.36523h.71679v6.71387Z"/><path class="cls-1" d="M442.51231,157.70861h-.584l-2.207-6.71387h.75488l1.74414,5.43164,1.74512-5.43164h.75391Z"/><path class="cls-1" d="M445.526,157.70861v-6.71387h.71582V157.067h3.43261v.6416Z"/><path class="cls-1" d="M450.52892,151.74865V150.985h.76464v.76368Zm.03808,5.96V153.069h.67871v4.63965Z"/><path class="cls-1" d="M455.68614,157.70861v-2.85742a1.08051,1.08051,0,0,0-1.1416-1.23536,1.09152,1.09152,0,0,0-1.15039,1.23536v2.85742h-.67871V153.069h.67871v.50976a1.67177,1.67177,0,0,1,1.30176-.5664,1.62953,1.62953,0,0,1,1.18847.43359,1.7155,1.7155,0,0,1,.48047,1.292v2.97071Z"/><path class="cls-1" d="M460.83067,157.70861l-1.47168-2.376-.90527,1.03711v1.33887H457.775v-6.71387h.67871V155.483l2.09375-2.41406h.84863l-1.57519,1.77246,1.84863,2.86719Z"/><line class="cls-2" x1="188.50603" y1="299.53809" x2="422.89636" y2="299.53809"/><polygon class="cls-3" points="421.341 301.819 429.853 299.538 421.341 297.257 421.341 301.819"/></g><g id="Arrow-2" data-name="Arrow"><polyline class="cls-4" points="131.531 271.385 131.047 271.385 131.047 252.429 248.39 252.429 248.53 216.514 331.446 216.514 331.446 131.299 404.552 131.299 404.552 63.063 470.644 63.063"/><g class="cls-5"><path class="cls-3" d="M115.54063,304.01134v-.98926l4.34375-5.51855a2.51462,2.51462,0,0,0,.61817-1.62305,1.91775,1.91775,0,1,0-3.833.01563h-1.11328a2.86023,2.86023,0,0,1,3.0293-2.9834,2.8247,2.8247,0,0,1,3.03027,2.96777,3.29265,3.29265,0,0,1-.88086,2.22656l-3.84961,4.915h4.73047v.98926Z"/><path class="cls-3" d="M126.59532,304.10411a2.90112,2.90112,0,0,1-3.01367-3.02929V295.943a3.0142,3.0142,0,1,1,6.02832,0v5.13184A2.9019,2.9019,0,0,1,126.59532,304.10411Zm1.90137-8.0996a1.911,1.911,0,1,0-3.80273,0v5.00781a1.911,1.911,0,1,0,3.80273,0Z"/><path class="cls-3" d="M134.62071,304.01134v-9.76855l-2.05566,1.80859V294.7838l2.05566-1.77832H135.733v11.00586Z"/><path class="cls-3" d="M144.96349,303.3004a2.9606,2.9606,0,0,1-2.19434.81934,3.09273,3.09273,0,0,1-2.21094-.78809,2.95744,2.95744,0,0,1-.77246-1.917H140.899a1.71364,1.71364,0,0,0,1.87012,1.71582,1.91839,1.91839,0,0,0,1.36035-.51074,3.06468,3.06468,0,0,0,.60254-2.24121c0-1.34473-.26269-2.67383-1.85449-2.67383a1.75984,1.75984,0,0,0-1.82422,1.082h-1.00488v-5.78125h5.56445v.98926h-4.55957v3.49414a2.57954,2.57954,0,0,1,1.97852-.75781,2.62044,2.62044,0,0,1,1.90136.69531,3.96242,3.96242,0,0,1,.91211,2.95215A3.83263,3.83263,0,0,1,144.96349,303.3004Z"/></g><line class="cls-6" x1="78.49114" y1="59.02089" x2="78.49114" y2="281.69372"/><g class="cls-5"><path class="cls-3" d="M472.63829,304.01134v-.98926l4.34375-5.51855a2.51467,2.51467,0,0,0,.61817-1.62305,1.91775,1.91775,0,1,0-3.833.01563h-1.11328a2.86023,2.86023,0,0,1,3.02929-2.9834,2.8247,2.8247,0,0,1,3.03028,2.96777,3.29265,3.29265,0,0,1-.88086,2.22656l-3.84961,4.915h4.73047v.98926Z"/><path class="cls-3" d="M483.693,304.10411a2.90112,2.90112,0,0,1-3.01367-3.02929V295.943a3.0142,3.0142,0,1,1,6.02832,0v5.13184A2.9019,2.9019,0,0,1,483.693,304.10411Zm1.90137-8.0996a1.911,1.911,0,1,0-3.80274,0v5.00781a1.911,1.911,0,1,0,3.80274,0Z"/><path class="cls-3" d="M488.78087,304.01134v-.98926l4.34375-5.51855a2.51466,2.51466,0,0,0,.61816-1.62305,1.91774,1.91774,0,1,0-3.833.01563h-1.11329a2.86023,2.86023,0,0,1,3.0293-2.9834,2.8247,2.8247,0,0,1,3.03027,2.96777,3.29269,3.29269,0,0,1-.88085,2.22656l-3.84961,4.915h4.73046v.98926Z"/><path class="cls-3" d="M496.85216,304.01134v-.98926l4.34375-5.51855a2.51466,2.51466,0,0,0,.61816-1.62305,1.91775,1.91775,0,1,0-3.833.01563h-1.11328a2.86023,2.86023,0,0,1,3.0293-2.9834,2.8247,2.8247,0,0,1,3.03027,2.96777,3.29265,3.29265,0,0,1-.88086,2.22656l-3.84961,4.915h4.73047v.98926Z"/></g><g class="cls-5"><path class="cls-3" d="M57.51915,168.63536a2.22056,2.22056,0,0,1-1.64648.61426,2.3139,2.3139,0,0,1-1.65821-.59179,2.21718,2.21718,0,0,1-.58008-1.4375h.835a1.28641,1.28641,0,0,0,1.40332,1.28711,1.4361,1.4361,0,0,0,1.0205-.38282,2.29967,2.29967,0,0,0,.45215-1.68164c0-1.00879-.19726-2.00586-1.3916-2.00586a1.32019,1.32019,0,0,0-1.36816.81153h-.75391v-4.33692h4.17481v.74219h-3.4209V164.275a1.93668,1.93668,0,0,1,1.48437-.56836,1.96984,1.96984,0,0,1,1.42676.52149,2.9751,2.9751,0,0,1,.68359,2.21484A2.87628,2.87628,0,0,1,57.51915,168.63536Z"/><path class="cls-3" d="M61.90294,169.2379a2.17608,2.17608,0,0,1-2.26074-2.27246v-3.85058a2.26126,2.26126,0,1,1,4.52246,0v3.85058A2.17632,2.17632,0,0,1,61.90294,169.2379Zm1.42676-6.07617a1.43349,1.43349,0,1,0-2.85254,0v3.75684a1.43349,1.43349,0,1,0,2.85254,0Z"/><path class="cls-3" d="M67.95665,169.2379a2.17608,2.17608,0,0,1-2.26074-2.27246v-3.85058a2.26126,2.26126,0,1,1,4.52246,0v3.85058A2.17686,2.17686,0,0,1,67.95665,169.2379Zm1.42676-6.07617a1.43349,1.43349,0,1,0-2.85254,0v3.75684a1.43349,1.43349,0,1,0,2.85254,0Z"/></g><g class="cls-5"><path class="cls-3" d="M57.40392,191.21837v1.31055H56.5797v-1.31055h-3.293v-.7539l2.98047-6.19239h.89258l-2.98047,6.19239H56.5797v-2.34278h.82422v2.34278h1.00879v.7539Z"/><path class="cls-3" d="M61.90294,192.59826a2.17609,2.17609,0,0,1-2.26074-2.27247v-3.85058a2.26126,2.26126,0,1,1,4.52246,0v3.85058A2.17633,2.17633,0,0,1,61.90294,192.59826Zm1.42676-6.07618a1.43349,1.43349,0,1,0-2.85254,0v3.75684a1.43349,1.43349,0,1,0,2.85254,0Z"/><path class="cls-3" d="M67.95665,192.59826a2.17609,2.17609,0,0,1-2.26074-2.27247v-3.85058a2.26126,2.26126,0,1,1,4.52246,0v3.85058A2.17686,2.17686,0,0,1,67.95665,192.59826Zm1.42676-6.07618a1.43349,1.43349,0,1,0-2.85254,0v3.75684a1.43349,1.43349,0,1,0,2.85254,0Z"/></g><g class="cls-5"><path class="cls-3" d="M55.42052,122.44884h-.88184l2.86524-7.51465h-2.876V116.233H53.7047v-2.041h4.58008v.74218Z"/><path class="cls-3" d="M61.90294,122.51818a2.17608,2.17608,0,0,1-2.26074-2.27246v-3.85059a2.26126,2.26126,0,1,1,4.52246,0v3.85059A2.17632,2.17632,0,0,1,61.90294,122.51818ZM63.3297,116.442a1.43349,1.43349,0,1,0-2.85254,0v3.75683a1.43349,1.43349,0,1,0,2.85254,0Z"/><path class="cls-3" d="M67.95665,122.51818a2.17608,2.17608,0,0,1-2.26074-2.27246v-3.85059a2.26126,2.26126,0,1,1,4.52246,0v3.85059A2.17686,2.17686,0,0,1,67.95665,122.51818Zm1.42676-6.07617a1.43349,1.43349,0,1,0-2.85254,0v3.75683a1.43349,1.43349,0,1,0,2.85254,0Z"/></g><g class="cls-5"><path class="cls-3" d="M55.87267,145.87755a2.19509,2.19509,0,0,1-2.2959-2.377,4.07281,4.07281,0,0,1,.52148-1.85547l2.0293-4.09375h.8584l-1.84375,3.71094a2.07547,2.07547,0,0,1,.87011-.17383,2.15146,2.15146,0,0,1,2.14551,2.34277A2.2549,2.2549,0,0,1,55.87267,145.87755Zm-.01172-4.082a1.68487,1.68487,0,1,0,1.46093,1.66992A1.491,1.491,0,0,0,55.861,141.79552Z"/><path class="cls-3" d="M61.90294,145.87755a2.17608,2.17608,0,0,1-2.26074-2.27246v-3.85058a2.26126,2.26126,0,1,1,4.52246,0v3.85058A2.17632,2.17632,0,0,1,61.90294,145.87755Zm1.42676-6.07617a1.43349,1.43349,0,1,0-2.85254,0v3.75684a1.43349,1.43349,0,1,0,2.85254,0Z"/><path class="cls-3" d="M67.95665,145.87755a2.17608,2.17608,0,0,1-2.26074-2.27246v-3.85058a2.26126,2.26126,0,1,1,4.52246,0v3.85058A2.17686,2.17686,0,0,1,67.95665,145.87755Zm1.42676-6.07617a1.43349,1.43349,0,1,0-2.85254,0v3.75684a1.43349,1.43349,0,1,0,2.85254,0Z"/></g><g class="cls-5"><path class="cls-3" d="M57.60118,67.399l-2.03027,4.09375h-.86914l1.85547-3.71094a2.17081,2.17081,0,0,1-3.01563-2.169,2.25491,2.25491,0,0,1,2.28516-2.44629,2.1951,2.1951,0,0,1,2.2959,2.377A4.07277,4.07277,0,0,1,57.60118,67.399ZM55.82677,63.9088a1.68487,1.68487,0,1,0,1.46094,1.66992A1.47424,1.47424,0,0,0,55.82677,63.9088Z"/><path class="cls-3" d="M61.90294,71.56212a2.17608,2.17608,0,0,1-2.26074-2.27246V65.43908a2.26126,2.26126,0,1,1,4.52246,0v3.85058A2.17632,2.17632,0,0,1,61.90294,71.56212ZM63.3297,65.486a1.43349,1.43349,0,1,0-2.85254,0v3.75684a1.43349,1.43349,0,1,0,2.85254,0Z"/><path class="cls-3" d="M67.95665,71.56212a2.17608,2.17608,0,0,1-2.26074-2.27246V65.43908a2.26126,2.26126,0,1,1,4.52246,0v3.85058A2.17686,2.17686,0,0,1,67.95665,71.56212ZM69.38341,65.486a1.43349,1.43349,0,1,0-2.85254,0v3.75684a1.43349,1.43349,0,1,0,2.85254,0Z"/></g><g class="cls-5"><path class="cls-3" d="M55.84923,99.15783a2.31529,2.31529,0,0,1-2.43457-2.34278,2.24791,2.24791,0,0,1,1.24023-2.00586,2.01648,2.01648,0,0,1-1.07812-1.832,2.27371,2.27371,0,0,1,4.5459,0,2.00767,2.00767,0,0,1-1.06739,1.832,2.23706,2.23706,0,0,1,1.2295,2.00586A2.31556,2.31556,0,0,1,55.84923,99.15783Zm0-3.96582a1.61185,1.61185,0,1,0,1.60058,1.6123A1.5766,1.5766,0,0,0,55.84923,95.192Zm0-3.6875a1.40723,1.40723,0,0,0-1.4375,1.48437,1.4384,1.4384,0,1,0,2.876,0A1.40745,1.40745,0,0,0,55.84923,91.50451Z"/><path class="cls-3" d="M61.90294,99.15783a2.17609,2.17609,0,0,1-2.26074-2.27247V93.03478a2.26126,2.26126,0,1,1,4.52246,0v3.85058A2.17633,2.17633,0,0,1,61.90294,99.15783Zm1.42676-6.07618a1.43349,1.43349,0,1,0-2.85254,0v3.75684a1.43349,1.43349,0,1,0,2.85254,0Z"/><path class="cls-3" d="M67.95665,99.15783a2.17609,2.17609,0,0,1-2.26074-2.27247V93.03478a2.26126,2.26126,0,1,1,4.52246,0v3.85058A2.17686,2.17686,0,0,1,67.95665,99.15783Zm1.42676-6.07618a1.43349,1.43349,0,1,0-2.85254,0v3.75684a1.43349,1.43349,0,1,0,2.85254,0Z"/></g><g class="cls-5"><path class="cls-3" d="M53.611,239.24962v-.74218l3.25781-4.13965a1.88551,1.88551,0,0,0,.46387-1.21778,1.43892,1.43892,0,1,0-2.876.01172h-.835a2.1464,2.1464,0,0,1,2.27344-2.23828A2.118,2.118,0,0,1,58.16759,233.15a2.46821,2.46821,0,0,1-.66016,1.66993l-2.88769,3.6875h3.54785v.74218Z"/><path class="cls-3" d="M61.902,239.319a2.17608,2.17608,0,0,1-2.26074-2.27246v-3.85059a2.26126,2.26126,0,1,1,4.52246,0v3.85059A2.17686,2.17686,0,0,1,61.902,239.319Zm1.42676-6.07617a1.43349,1.43349,0,1,0-2.85254,0v3.75683a1.43349,1.43349,0,1,0,2.85254,0Z"/><path class="cls-3" d="M67.95567,239.319a2.17608,2.17608,0,0,1-2.26074-2.27246v-3.85059a2.26126,2.26126,0,1,1,4.52246,0v3.85059A2.17632,2.17632,0,0,1,67.95567,239.319Zm1.42676-6.07617a1.43349,1.43349,0,1,0-2.85254,0v3.75683a1.43349,1.43349,0,1,0,2.85254,0Z"/></g><g class="cls-5"><path class="cls-3" d="M55.733,215.97033a2.19371,2.19371,0,0,1-2.42383-2.17969h.835a1.4574,1.4574,0,0,0,1.58887,1.4375,1.51214,1.51214,0,0,0,1.58886-1.60059,1.43529,1.43529,0,0,0-1.624-1.59961H55.524v-.73047h.17383a1.32912,1.32912,0,0,0,1.47266-1.49609,1.38218,1.38218,0,0,0-1.4375-1.50781,1.4,1.4,0,0,0-1.48438,1.37988h-.835a2.19515,2.19515,0,0,1,2.31934-2.12207,2.13937,2.13937,0,0,1,2.27246,2.23828,1.85129,1.85129,0,0,1-1.11328,1.832,1.935,1.935,0,0,1,1.26367,2.01758A2.23829,2.23829,0,0,1,55.733,215.97033Z"/><path class="cls-3" d="M61.902,215.95861a2.17608,2.17608,0,0,1-2.26074-2.27246v-3.85059a2.26126,2.26126,0,1,1,4.52246,0v3.85059A2.17686,2.17686,0,0,1,61.902,215.95861Zm1.42676-6.07617a1.43349,1.43349,0,1,0-2.85254,0v3.75683a1.43349,1.43349,0,1,0,2.85254,0Z"/><path class="cls-3" d="M67.95567,215.95861a2.17608,2.17608,0,0,1-2.26074-2.27246v-3.85059a2.26126,2.26126,0,1,1,4.52246,0v3.85059A2.17632,2.17632,0,0,1,67.95567,215.95861Zm1.42676-6.07617a1.43349,1.43349,0,1,0-2.85254,0v3.75683a1.43349,1.43349,0,1,0,2.85254,0Z"/></g><g class="cls-5"><path class="cls-3" d="M55.81407,262.61V255.2799l-1.543,1.35742v-.95117l1.543-1.334h.835V262.61Z"/><path class="cls-3" d="M61.902,262.67833a2.17583,2.17583,0,0,1-2.26074-2.27148v-3.85156a2.26125,2.26125,0,1,1,4.52246,0v3.85156A2.17661,2.17661,0,0,1,61.902,262.67833Zm1.42676-6.07617a1.4334,1.4334,0,1,0-2.85254,0V260.36a1.4334,1.4334,0,1,0,2.85254,0Z"/><path class="cls-3" d="M67.95567,262.67833a2.17583,2.17583,0,0,1-2.26074-2.27148v-3.85156a2.26125,2.26125,0,1,1,4.52246,0v3.85156A2.17607,2.17607,0,0,1,67.95567,262.67833Zm1.42676-6.07617a1.4334,1.4334,0,1,0-2.85254,0V260.36a1.4334,1.4334,0,1,0,2.85254,0Z"/></g><g class="cls-5"><path class="cls-3" d="M67.95567,286.03869a2.17609,2.17609,0,0,1-2.26074-2.27247v-3.85058a2.26126,2.26126,0,1,1,4.52246,0v3.85058A2.17633,2.17633,0,0,1,67.95567,286.03869Zm1.42676-6.07618a1.43349,1.43349,0,1,0-2.85254,0v3.75684a1.43349,1.43349,0,1,0,2.85254,0Z"/></g><rect class="cls-1" x="99.19172" y="261.07587" width="62.88446" height="19.58696"/><g class="cls-5"><path class="cls-7" d="M125.92247,276.53869v-6.8711l-2.36719,5.00879H122.4l-2.4248-5.00879v6.8711h-1.5586V266.26134h1.5586l3.00292,6.39453,2.94434-6.39453h1.55859v10.27735Z"/><path class="cls-7" d="M134.899,274.99376v1.54493h-1.42968v-1.54493h-4.15723v-1.37109l3.62305-7.36133h1.58789l-3.6084,7.36133h2.55469v-2.39648H134.899v2.39648h1.09668v1.37109Z"/><path class="cls-7" d="M140.33946,276.6256a2.82961,2.82961,0,0,1-2.959-2.94531v-4.56153a2.96639,2.96639,0,0,1,5.93262,0v4.56153A2.84127,2.84127,0,0,1,140.33946,276.6256Zm1.501-7.46289a1.50389,1.50389,0,1,0-2.98828,0v4.47461a1.50389,1.50389,0,1,0,2.98828,0Z"/></g><rect class="cls-8" x="212.83676" y="238.74344" width="62.88446" height="23.59978"/><g class="cls-5"><path class="cls-7" d="M233.54063,250.70372h-2.33886v4.042h-1.5586V244.46837h3.89746a3.12224,3.12224,0,1,1,0,6.23535Zm-.08691-4.835h-2.25195v3.4209h2.25195a1.71365,1.71365,0,1,0,0-3.4209Z"/><path class="cls-7" d="M241.03087,254.74572v-8.67578l-2.00684,1.76171v-1.63086l2.00684-1.73242h1.47168v10.27735Z"/><path class="cls-7" d="M248.91075,254.83263a2.82961,2.82961,0,0,1-2.959-2.94531v-4.56153a2.96639,2.96639,0,0,1,5.93261,0v4.56153A2.84126,2.84126,0,0,1,248.91075,254.83263Zm1.501-7.46289a1.50389,1.50389,0,1,0-2.98828,0v4.47461a1.50389,1.50389,0,1,0,2.98828,0Z"/><path class="cls-7" d="M256.60313,254.83263a2.82962,2.82962,0,0,1-2.959-2.94531v-4.56153a2.96639,2.96639,0,0,1,5.93262,0v4.56153A2.84127,2.84127,0,0,1,256.60313,254.83263Zm1.501-7.46289a1.50389,1.50389,0,1,0-2.98828,0v4.47461a1.50389,1.50389,0,1,0,2.98828,0Z"/></g><rect class="cls-8" x="451.58933" y="51.32737" width="68.03892" height="25.14321"/><g class="cls-5"><path class="cls-7" d="M476.70274,69.36681V64.87755h-4.17187v4.48926h-1.55859V59.08947h1.55859v4.38769h4.17187V59.08947h1.5586V69.36681Z"/><path class="cls-7" d="M483.2545,69.36681V60.691l-2.00683,1.76172V60.82189l2.00683-1.73242h1.47168V69.36681Z"/><path class="cls-7" d="M491.13438,69.45372a2.82961,2.82961,0,0,1-2.959-2.94531V61.94689a2.96639,2.96639,0,0,1,5.93262,0v4.56152A2.84126,2.84126,0,0,1,491.13438,69.45372Zm1.501-7.46289a1.50389,1.50389,0,1,0-2.98828,0v4.47461a1.50389,1.50389,0,1,0,2.98828,0Z"/><path class="cls-7" d="M498.82677,69.45372a2.82962,2.82962,0,0,1-2.959-2.94531V61.94689a2.96639,2.96639,0,0,1,5.93262,0v4.56152A2.84125,2.84125,0,0,1,498.82677,69.45372Zm1.501-7.46289a1.50389,1.50389,0,1,0-2.98828,0v4.47461a1.50389,1.50389,0,1,0,2.98828,0Z"/></g><rect class="cls-8" x="372.06007" y="119.2644" width="68.03892" height="25.14321"/><g class="cls-5"><path class="cls-7" d="M397.3463,137.30431l-.707-2.06445h-4.05664l-.707,2.06445h-1.66016L393.983,127.027h1.25586l3.76758,10.27734Zm-2.69922-7.95312-1.60254,4.56054h3.16113Z"/><path class="cls-7" d="M402.77306,137.30431v-8.67578l-2.00684,1.76172v-1.63086l2.00684-1.73242h1.47168v10.27734Z"/><path class="cls-7" d="M410.65294,137.39122a2.82961,2.82961,0,0,1-2.959-2.94531v-4.56152a2.96639,2.96639,0,0,1,5.93261,0v4.56152A2.84125,2.84125,0,0,1,410.65294,137.39122Zm1.501-7.46289a1.50389,1.50389,0,1,0-2.98829,0v4.47461a1.50389,1.50389,0,1,0,2.98829,0Z"/><path class="cls-7" d="M418.34532,137.39122a2.82961,2.82961,0,0,1-2.959-2.94531v-4.56152a2.96639,2.96639,0,0,1,5.93262,0v4.56152A2.84126,2.84126,0,0,1,418.34532,137.39122Zm1.501-7.46289a1.50389,1.50389,0,1,0-2.98828,0v4.47461a1.50389,1.50389,0,1,0,2.98828,0Z"/></g><rect class="cls-8" x="296.25717" y="200.81365" width="68.03892" height="25.60166"/><g class="cls-5"><path class="cls-7" d="M318.9586,218.85314h-1.21191l-3.37793-10.27735H315.985l2.36816,7.47657,2.36719-7.47657h1.64551Z"/><path class="cls-7" d="M326.08849,218.85314v-8.67578l-2.00684,1.76172v-1.63086l2.00684-1.73243h1.47168v10.27735Z"/><path class="cls-7" d="M333.96837,218.94005a2.82962,2.82962,0,0,1-2.959-2.94531v-4.56152a2.96639,2.96639,0,0,1,5.93262,0v4.56152A2.84126,2.84126,0,0,1,333.96837,218.94005Zm1.501-7.46289a1.50389,1.50389,0,1,0-2.98829,0v4.47461a1.50389,1.50389,0,1,0,2.98829,0Z"/><path class="cls-7" d="M341.66075,218.94005a2.82961,2.82961,0,0,1-2.959-2.94531v-4.56152a2.96639,2.96639,0,0,1,5.93261,0v4.56152A2.84126,2.84126,0,0,1,341.66075,218.94005Zm1.501-7.46289a1.50389,1.50389,0,1,0-2.98828,0v4.47461a1.50389,1.50389,0,1,0,2.98828,0Z"/></g><line class="cls-9" x1="78.49114" y1="281.69372" x2="517.13296" y2="281.69372"/><g class="cls-5"><path class="cls-3" d="M38.52892,179.485a3.27887,3.27887,0,0,1,.10058,4.67188c-.84179.8418-1.7207.8418-3.61719.8418s-2.77539,0-3.61621-.8418a3.16211,3.16211,0,0,1-.92968-2.28516,3.04732,3.04732,0,0,1,2.6748-3.12695v.9541a2.19819,2.19819,0,0,0-1.18066,3.7168c.57812.56543,1.18066.62793,3.05175.62793s2.48633-.0625,3.06446-.62793a2.15241,2.15241,0,0,0,.62793-1.54395,2.17664,2.17664,0,0,0-.7666-1.69531,2.34194,2.34194,0,0,0-1.62012-.50293h-.67774v2.19824h-.84179v-3.15234h1.41992A3.09351,3.09351,0,0,1,38.52892,179.485Z"/><path class="cls-3" d="M39.483,173.01427v3.47852H30.54161v-3.36524a2.36043,2.36043,0,0,1,2.38574-2.63672,2.047,2.047,0,0,1,1.959,1.31836,2.16429,2.16429,0,0,1,2.123-1.457A2.36882,2.36882,0,0,1,39.483,173.01427Zm-8.08692.18848v2.33594h3.10157v-2.33594c0-.99219-.49024-1.75781-1.55762-1.75781S31.3961,172.21056,31.3961,173.20275Zm3.95508-.10059v2.43653H38.6295v-2.43653a1.64592,1.64592,0,1,0-3.27832,0Z"/><path class="cls-3" d="M40.41271,168.50255v.8916l-10.79981-3.5791v-.8916Z"/><path class="cls-3" d="M39.55821,161.3424a3.89785,3.89785,0,0,1-1.18066,3.06445l-.65234-.65332a3.07267,3.07267,0,0,0,.97949-2.43555c0-1.30664-.61524-2.11035-1.65821-2.11035a1.44021,1.44021,0,0,0-1.11718.42676,1.92578,1.92578,0,0,0-.42676,1.168l-.16406,1.043a3.24158,3.24158,0,0,1-.67774,1.64453,2.112,2.112,0,0,1-1.66992.67871c-1.51953,0-2.52441-1.09278-2.52441-2.86328a3.59207,3.59207,0,0,1,.97949-2.66309l.61523.61621a2.8164,2.8164,0,0,0-.76562,2.084,1.65149,1.65149,0,0,0,1.65722,1.88379,1.2923,1.2923,0,0,0,1.03028-.40137,2.57493,2.57493,0,0,0,.48926-1.20606l.15039-.97949a2.88708,2.88708,0,0,1,.62793-1.63281,2.24208,2.24208,0,0,1,1.77148-.75293C38.59142,158.25353,39.55821,159.484,39.55821,161.3424Z"/><path class="cls-3" d="M36.63243,155.85216c1.35645,0,2.13477-.64062,2.13477-1.82129a2.028,2.028,0,0,0-.70313-1.61914l.54-.61621a2.83061,2.83061,0,0,1,.9541,2.26074c0,1.63282-.97949,2.7002-3.16406,2.7002-1.99707,0-3.165-.9668-3.165-2.53711,0-1.59473,1.15527-2.53613,2.98926-2.53613h.41406Zm-1.708-3.07715a1.58679,1.58679,0,0,0,0,2.88868,2.59477,2.59477,0,0,0,1.03028.18847v-3.26465A2.59635,2.59635,0,0,0,34.92442,152.775Z"/><path class="cls-3" d="M39.55821,147.361c0,1.55664-1.05468,2.73731-3.16406,2.73731-2.11035,0-3.165-1.18067-3.165-2.73731a2.44537,2.44537,0,0,1,.917-2.03516l.57715.61524a1.6975,1.6975,0,0,0-.69043,1.41992,1.67179,1.67179,0,0,0,.70313,1.43066,2.651,2.651,0,0,0,1.6582.40235,2.64785,2.64785,0,0,0,1.65723-.40235,1.67181,1.67181,0,0,0,.70312-1.43066,1.711,1.711,0,0,0-.70312-1.41992l.58984-.61524A2.44534,2.44534,0,0,1,39.55821,147.361Z"/></g><g class="cls-5"><path class="cls-3" d="M536.08067,282.232l-.71582-2.02148h-3.90527l-.71582,2.02148h-1.01758l3.29-8.9414h.80371l3.27832,8.9414Zm-2.64941-7.57226-1.68262,4.72168h3.33985Z"/><path class="cls-3" d="M541.83556,277.234a1.29447,1.29447,0,0,0-1.06739-.45215,1.50921,1.50921,0,0,0-1.48242,1.65723v3.793h-.90429v-6.17871h.90429v.75391a2.07692,2.07692,0,0,1,1.7334-.8291,1.9,1.9,0,0,1,1.48145.57812Z"/><path class="cls-3" d="M545.6422,282.30724c-1.55664,0-2.73731-1.05469-2.73731-3.16406,0-2.11035,1.18067-3.165,2.73731-3.165a2.448,2.448,0,0,1,2.03515.917l-.61523.57715a1.6975,1.6975,0,0,0-1.41992-.69043,1.67184,1.67184,0,0,0-1.43067.70312,3.61622,3.61622,0,0,0,0,3.31543,1.67182,1.67182,0,0,0,1.43067.70313,1.711,1.711,0,0,0,1.41992-.70313l.61523.58985A2.44534,2.44534,0,0,1,545.6422,282.30724Z"/><path class="cls-3" d="M553.35606,282.232v-3.81738a1.42557,1.42557,0,0,0-1.50683-1.63281,1.458,1.458,0,0,0-1.54492,1.63281V282.232H549.4v-8.9414h.9043v3.4414a2.20376,2.20376,0,0,1,1.7334-.7539,2.0884,2.0884,0,0,1,2.22265,2.28515V282.232Z"/><path class="cls-3" d="M556.41075,274.29552v-1.01758h1.01758v1.01758Zm.04981,7.93652v-6.17871h.90429V282.232Z"/><path class="cls-3" d="M561.37267,282.232a1.5152,1.5152,0,0,1-1.582-1.65722v-3.793h-.77929v-.69043h.77929v-1.93457h.9043v1.93457h1.31836v.69043h-1.31836v3.76758c0,.56543.26367.90429.84082.90429h.47754v.77832Z"/><path class="cls-3" d="M564.275,279.38146c0,1.35644.64062,2.13476,1.82129,2.13476a2.028,2.028,0,0,0,1.61914-.70312l.61621.54a2.83059,2.83059,0,0,1-2.26074.9541c-1.63281,0-2.7002-.97949-2.7002-3.16406,0-1.99707.9668-3.165,2.53711-3.165,1.59473,0,2.53614,1.15527,2.53614,2.98926v.41406Zm3.07715-1.708a1.58678,1.58678,0,0,0-2.88867,0,2.59452,2.59452,0,0,0-.18848,1.03027h3.26465A2.5963,2.5963,0,0,0,567.35216,277.67345Z"/><path class="cls-3" d="M572.76622,282.30724c-1.55664,0-2.7373-1.05469-2.7373-3.16406,0-2.11035,1.18066-3.165,2.7373-3.165a2.44807,2.44807,0,0,1,2.03516.917l-.61524.57715a1.6975,1.6975,0,0,0-1.41992-.69043,1.67181,1.67181,0,0,0-1.43066.70312,3.61614,3.61614,0,0,0,0,3.31543,1.67179,1.67179,0,0,0,1.43066.70313,1.711,1.711,0,0,0,1.41992-.70313l.61524.58985A2.44537,2.44537,0,0,1,572.76622,282.30724Z"/><path class="cls-3" d="M578.25743,282.232a1.51519,1.51519,0,0,1-1.582-1.65722v-3.793h-.7793v-.69043h.7793v-1.93457h.9043v1.93457h1.31836v.69043H577.5797v3.76758c0,.56543.26367.90429.84082.90429h.47754v.77832Z"/><path class="cls-3" d="M584.60118,282.232v-.69043a2.26664,2.26664,0,0,1-1.74609.76563,2.2,2.2,0,0,1-1.59473-.57715,2.30684,2.30684,0,0,1-.62793-1.7334v-3.94336h.9043V279.859c0,1.09179.57715,1.64453,1.50683,1.64453a1.46183,1.46183,0,0,0,1.54493-1.64453v-3.80567h.90429V282.232Z"/><path class="cls-3" d="M591.20958,277.234a1.29445,1.29445,0,0,0-1.06738-.45215,1.5092,1.5092,0,0,0-1.48242,1.65723v3.793h-.9043v-6.17871h.9043v.75391a2.07689,2.07689,0,0,1,1.73339-.8291,1.9,1.9,0,0,1,1.48145.57812Z"/><path class="cls-3" d="M593.18224,279.38146c0,1.35644.64062,2.13476,1.82129,2.13476a2.028,2.028,0,0,0,1.61914-.70312l.61621.54a2.83061,2.83061,0,0,1-2.26075.9541c-1.63281,0-2.70019-.97949-2.70019-3.16406,0-1.99707.9668-3.165,2.53711-3.165,1.59473,0,2.53613,1.15527,2.53613,2.98926v.41406Zm3.07714-1.708a1.58678,1.58678,0,0,0-2.88867,0,2.59472,2.59472,0,0,0-.18847,1.03027h3.26464A2.596,2.596,0,0,0,596.25938,277.67345Z"/><path class="cls-3" d="M536.00548,294.79552l-2.03418-3.96875h-2.14746v3.96875h-.9541v-8.94141h3.42773a2.41833,2.41833,0,0,1,2.64941,2.48633,2.31876,2.31876,0,0,1-1.94628,2.39844l2.12207,4.05664Zm-1.7959-8.08691h-2.38574V289.986h2.38574a1.64453,1.64453,0,1,0,0-3.27734Z"/><path class="cls-3" d="M539.51231,291.94494c0,1.35644.64063,2.13476,1.82129,2.13476a2.028,2.028,0,0,0,1.61914-.70312l.61622.54a2.83062,2.83062,0,0,1-2.26075.95411c-1.63281,0-2.70019-.9795-2.70019-3.16407,0-1.99707.96679-3.165,2.53711-3.165,1.59472,0,2.53613,1.15528,2.53613,2.98926v.41407Zm3.07715-1.708a1.58678,1.58678,0,0,0-2.88867,0,2.59484,2.59484,0,0,0-.18848,1.03027H542.777A2.59591,2.59591,0,0,0,542.58946,290.23693Z"/><path class="cls-3" d="M547.15,294.79552a1.47173,1.47173,0,0,1-1.56934-1.64551v-7.2959h.90332v7.25879c0,.60254.20118.9043.82911.9043h.49023v.77832Z"/><path class="cls-3" d="M549.58751,291.94494c0,1.35644.64062,2.13476,1.82129,2.13476a2.028,2.028,0,0,0,1.61914-.70312l.61621.54a2.8306,2.8306,0,0,1-2.26074.95411c-1.63281,0-2.7002-.9795-2.7002-3.16407,0-1.99707.9668-3.165,2.53711-3.165,1.59473,0,2.53614,1.15528,2.53614,2.98926v.41407Zm3.07715-1.708a1.58678,1.58678,0,0,0-2.88867,0,2.59449,2.59449,0,0,0-.18848,1.03027h3.26465A2.59627,2.59627,0,0,0,552.66466,290.23693Z"/><path class="cls-3" d="M559.18419,294.79552v-.58984a2.16985,2.16985,0,0,1-1.7832.665,2.1982,2.1982,0,0,1-1.74512-.56543,1.77594,1.77594,0,0,1-.46484-1.25489c0-1.08007.75293-1.7832,2.13476-1.7832h1.8584v-.59082c0-.9043-.45215-1.35644-1.582-1.35644a1.62324,1.62324,0,0,0-1.55762.70312l-.61523-.56445a2.39522,2.39522,0,0,1,2.18554-.917c1.65723,0,2.47364.71583,2.47364,2.05958v4.19433Zm0-2.85058h-1.73242c-.92969,0-1.38184.377-1.38184,1.09277s.43945,1.05469,1.41895,1.05469a1.81017,1.81017,0,0,0,1.38183-.41407,1.43154,1.43154,0,0,0,.31348-1.06836Z"/><path class="cls-3" d="M564.236,294.87072a3.40323,3.40323,0,0,1-2.53711-.89161l.60254-.60253a2.52915,2.52915,0,0,0,1.92187.71582c1.0166,0,1.64453-.36426,1.64453-1.09278,0-.54-.31347-.84082-1.02929-.90429l-1.01758-.08789c-1.20508-.10059-1.8457-.64063-1.8457-1.65723,0-1.13086.9541-1.8086,2.27246-1.8086a3.49551,3.49551,0,0,1,2.22363.666l-.59082.58984a2.63752,2.63752,0,0,0-1.64453-.49023c-.9043,0-1.38184.38965-1.38184,1.01758,0,.52734.30176.84179,1.08008.90429l.99219.0879c1.08008.10058,1.82031.51464,1.82031,1.66992C566.74669,294.18029,565.73009,294.87072,564.236,294.87072Z"/><path class="cls-3" d="M569.08556,291.94494c0,1.35644.64062,2.13476,1.82129,2.13476a2.028,2.028,0,0,0,1.61914-.70312l.61621.54a2.83061,2.83061,0,0,1-2.26074.95411c-1.63282,0-2.7002-.9795-2.7002-3.16407,0-1.99707.9668-3.165,2.53711-3.165,1.59473,0,2.53613,1.15528,2.53613,2.98926v.41407Zm3.07715-1.708a1.58679,1.58679,0,0,0-2.88868,0,2.59468,2.59468,0,0,0-.18847,1.03027h3.26465A2.59627,2.59627,0,0,0,572.16271,290.23693Z"/></g></g></svg>